<?xml version="1.0" encoding="UTF-8" standalone="no"?>
<svg
   width="450.61pt"
   height="173.11pt"
   viewBox="0 0 450.61 173.11"
   version="1.1"
   id="svg39"
   sodipodi:docname="King_Saud1.svg"
   inkscape:version="1.3 (0e150ed6c4, 2023-07-21)"
   xmlns:inkscape="http://www.inkscape.org/namespaces/inkscape"
   xmlns:sodipodi="http://sodipodi.sourceforge.net/DTD/sodipodi-0.dtd"
   xmlns="http://www.w3.org/2000/svg"
   xmlns:svg="http://www.w3.org/2000/svg">
  <sodipodi:namedview
     id="namedview39"
     pagecolor="#a65454"
     bordercolor="#ffffff"
     borderopacity="1"
     inkscape:showpageshadow="0"
     inkscape:pageopacity="0"
     inkscape:pagecheckerboard="false"
     inkscape:deskcolor="#d1d1d1"
     inkscape:document-units="pt"
     inkscape:zoom="1.4028838"
     inkscape:cx="311.1448"
     inkscape:cy="141.49426"
     inkscape:current-layer="surface1" />
  <defs
     id="defs1">
    <inkscape:path-effect
       effect="bool_op"
       operand-path="#path12"
       id="path-effect3"
       is_visible="true"
       lpeversion="1"
       operation="union"
       swap-operands="false"
       filltype-this="from-curve"
       filter=""
       filltype-operand="from-curve" />
    <inkscape:path-effect
       effect="bool_op"
       operand-path="#path12"
       id="path-effect2"
       is_visible="true"
       lpeversion="1"
       operation="diff"
       swap-operands="false"
       filltype-this="from-curve"
       filter=""
       filltype-operand="from-curve" />
    <filter
       id="selectable_hidder_filter"
       width="1"
       height="1"
       x="0"
       y="0"
       style="color-interpolation-filters:sRGB;"
       inkscape:label="LPE boolean visibility">
      <feComposite
         id="boolops_hidder_primitive"
         result="composite1"
         operator="arithmetic"
         in2="SourceGraphic"
         in="BackgroundImage" />
    </filter>
    <inkscape:path-effect
       effect="bool_op"
       operand-path=""
       id="path-effect1"
       is_visible="true"
       lpeversion="1"
       operation="diff"
       swap-operands="false"
       filltype-this="from-curve"
       filter=""
       filltype-operand="from-curve" />
    <clipPath
       id="clip1">
      <path
         d="M 0 0 L 450.609375 0 L 450.609375 173.109375 L 0 173.109375 Z M 0 0 "
         id="path1" />
    </clipPath>
  </defs>
  <g
     id="surface1">
    <path
       id="path2"
       style="display:inline;fill:#ffffff;fill-opacity:1;fill-rule:nonzero;stroke:none"
       d="M 0 0 L 0 173.10938 L 384.21826 173.10938 L 384.21826 173.10498 C 384.35107 173.10498 384.48437 173.10938 384.63281 173.10938 C 421.07028 173.10938 450.61377 143.56638 450.61377 107.12109 L 450.61377 0 L 0 0 z M 384.65186 15.180176 C 398.29637 21.676262 412.84816 26.823734 427.86768 30.358887 L 427.86768 107.15186 C 427.86768 130.96824 408.47703 150.34424 384.67236 150.34424 C 360.8638 150.34424 341.4375 130.96824 341.4375 107.15186 L 341.4375 30.358887 C 356.46482 26.823734 371.01125 21.676262 384.65186 15.180176 z M 69.534668 22.879395 C 70.308104 22.879395 70.972658 23.128908 71.53125 23.613281 C 72.097654 24.097656 72.382324 24.668458 72.382324 25.316895 C 72.382324 26.031737 72.097654 26.632813 71.53125 27.117188 C 70.972658 27.605467 70.308104 27.84375 69.534668 27.84375 C 68.761233 27.84375 68.109863 27.605467 67.562988 27.117188 C 67.020021 26.632813 66.75 26.031737 66.75 25.316895 C 66.75 24.668458 67.020021 24.097656 67.562988 23.613281 C 68.109863 23.128908 68.761233 22.879395 69.534668 22.879395 z M 77.383301 22.879395 C 78.187986 22.879395 78.858887 23.128908 79.390137 23.613281 C 79.913573 24.097656 80.179688 24.668458 80.179688 25.316895 C 80.179688 26.031737 79.913573 26.632813 79.390137 27.117188 C 78.858887 27.605467 78.187986 27.84375 77.383301 27.84375 C 76.617678 27.84375 75.952636 27.605467 75.41748 27.117188 C 74.866701 26.632813 74.594238 26.031737 74.594238 25.316895 C 74.594238 24.668458 74.866701 24.097656 75.41748 23.613281 C 75.952636 23.128908 76.617678 22.879395 77.383301 22.879395 z M 224.97217 25.844238 L 232.05908 25.844238 C 232.69971 25.844238 232.95312 26.202639 232.94531 26.925293 L 232.94531 50.254395 L 311.12109 50.245605 L 309.49951 42.133301 C 308.46436 38.328621 305.12547 35.859375 301.00049 35.859375 L 300.47314 35.847656 C 297.02003 35.847656 293.4458 36.991702 292.42236 37.812012 L 292.18359 38.008301 L 289.73438 38.008301 L 289.73438 34.886719 L 290.16357 34.675781 C 291.96435 33.785158 296.28517 32.824219 300.73828 32.824219 C 300.94531 32.824219 301.15283 32.823731 301.36377 32.831543 C 301.70752 32.854981 304.14795 33.035645 305.4917 33.42627 C 307.95654 33.973143 312.26564 36.652354 313.83984 41.753906 L 315.60498 49.460449 C 315.76514 49.940917 316.3125 50.273438 316.60547 50.273438 L 318.62109 50.273438 L 318.62109 53.664551 L 227.55029 53.664551 L 227.55029 29.601563 C 227.55029 29.125 226.91406 28.483887 226.28906 28.483887 L 224.97217 28.483887 L 224.97217 25.844238 z M 206.49609 32.496094 C 213.35546 32.496094 218.00391 36.663588 218.00391 43.308105 C 218.00391 49.886218 213.94529 53.969238 205.99219 53.969238 C 201.6211 53.969238 199.02783 52.312496 197.18408 51.210938 C 195.47705 52.660152 193.03905 53.664551 189.67969 53.664551 L 145.48096 53.664551 C 143.85596 53.664551 141.35156 53.284665 139.01953 51.804199 C 136.19922 53.66357 132.86279 53.664551 132.86279 53.664551 L 78.65625 53.664551 C 78.214844 53.664551 77.918457 53.546875 77.805176 53.34375 C 77.762207 53.285156 77.745605 53.219238 77.726074 53.137207 L 77.726074 51.007324 C 76.190921 52.444822 73.61718 53.737793 70.230469 53.737793 C 65.484383 53.737793 60.433594 51.530747 60.433594 43.589355 C 60.433594 35.659683 65.895029 32.734863 70.633301 32.734863 C 74.070793 32.734863 76.328616 33.808109 77.910645 35.339355 C 78.223143 33.729984 79.171875 32.976563 79.804688 32.976563 L 82.647949 32.976563 L 82.647949 50.242676 L 132.0542 50.226563 C 132.76123 50.226563 133.41406 50.183592 134.12109 50.039063 C 132.86329 49.074219 129.87939 46.56298 125.07861 42.508301 C 125.07861 40.238773 126.44533 38.163572 129.16406 36.32373 C 131.9414 34.491703 135.25832 33.574219 139.12939 33.574219 C 142.93798 33.574219 146.25831 34.492679 149.07861 36.379395 C 151.75049 38.164548 153.0542 40.238773 153.0542 42.508301 C 152.51514 42.941892 149.46092 45.460946 143.90625 50.039063 C 144.61328 50.183592 145.37842 50.226563 146.09326 50.226563 L 188.88281 50.226563 L 188.88281 50.242676 C 191.92578 50.187988 196.08545 49.675282 196.08545 43.91748 L 196.12061 42.496582 C 196.12061 36.484875 199.8633 32.496094 206.49609 32.496094 z M 206.49609 35.175293 C 203.05861 35.175293 200.93408 37.980475 200.93408 41.308594 C 200.93408 41.308594 200.80811 43.562994 200.33936 45.859863 C 200.14404 46.785642 199.80029 47.742677 199.28467 48.660645 C 200.51123 49.918454 202.45703 51.210938 205.62891 51.210938 C 210.98045 51.210938 212.72217 48.804678 212.90186 43.910156 C 212.97217 42.843752 212.80811 41.308594 212.80811 41.308594 C 212.35889 37.179696 210.05468 35.175293 206.49609 35.175293 z M 72.358887 35.784668 C 68.878424 35.784668 65.484375 37.465344 65.484375 43.516113 C 65.484375 49.805164 68.652839 51.046875 71.67627 51.046875 C 74.305171 51.046875 76.23389 50.003902 77.726074 48.679688 L 77.726074 37.464844 C 76.32764 36.58594 74.515133 35.784668 72.358887 35.784668 z M 139.13232 37.059082 C 136.46437 37.059082 134.23877 37.559084 132.43799 38.547363 C 130.95752 39.477049 130.09033 40.414553 129.90674 41.453613 C 131.95361 43.21533 134.98781 45.797369 139.13232 49.199707 L 148.29346 41.453613 C 148.10596 40.355959 147.30518 39.367674 145.87939 38.547363 C 144.08644 37.559084 141.79638 37.059082 139.13232 37.059082 z M 304.7417 56.828613 C 305.51123 56.828613 306.17139 57.059084 306.72217 57.531738 C 307.25732 58.000488 307.53516 58.597169 307.53516 59.304199 C 307.53516 59.987792 307.25732 60.566406 306.72217 61.03125 C 306.17139 61.507813 305.51123 61.73877 304.7417 61.73877 C 303.94092 61.73877 303.27344 61.507813 302.74219 61.03125 C 302.21484 60.566406 301.94971 59.987792 301.94971 59.304199 C 301.94971 58.597169 302.21484 58.000488 302.74219 57.531738 C 303.27344 57.059084 303.94092 56.828613 304.7417 56.828613 z M 216.44531 68.433105 L 218.71436 68.433105 L 218.71436 70.792969 L 217.17188 70.792969 C 216.69141 70.792969 216.23389 70.816406 215.81982 70.875 C 215.40576 70.933594 215.04297 71.051269 214.71094 71.242676 C 214.38672 71.422363 214.14502 71.695802 213.97705 72.05127 C 213.78955 72.410643 213.70313 72.870606 213.70313 73.437012 L 213.70313 75.714844 L 219.00439 75.714844 L 219.00439 78.062988 L 207.76904 78.062988 L 207.76904 75.714844 L 211.00342 75.714844 L 211.00342 73.437012 C 211.00342 71.698733 211.50342 70.43408 212.50342 69.637207 C 213.4917 68.836428 214.81641 68.433105 216.44531 68.433105 z M 224.42139 68.777344 L 231.47314 68.777344 C 232.10205 68.777344 232.36768 69.137209 232.36377 69.859863 L 232.36377 87.730957 C 232.36377 88.535642 232.44482 89.269043 232.60107 89.937012 C 232.76904 90.608885 233.03857 91.191895 233.39795 91.691895 C 233.77295 92.184081 234.26563 92.574221 234.86719 92.847656 C 235.48047 93.117188 236.2417 93.250488 237.13623 93.250488 L 244.13232 93.250488 C 245.12451 93.250488 245.77344 93.047362 246.08203 92.629395 C 246.39453 92.223145 246.54346 91.43701 246.54346 90.300293 L 246.54346 84.074707 L 246.53906 84.074707 L 246.53906 72.616699 C 246.53906 72.136232 245.89893 71.48877 245.26611 71.48877 L 243.94189 71.48877 L 243.94189 68.843262 L 251.04639 68.843262 C 251.67139 68.843262 251.94971 69.207033 251.93408 69.925781 L 251.93408 77.679199 L 251.9458 77.679199 L 251.9458 87.730957 C 251.9458 88.449705 252.01611 89.137207 252.15674 89.805176 C 252.3208 90.480955 252.56201 91.074707 252.93311 91.586426 C 253.30811 92.102049 253.79297 92.507326 254.40234 92.808105 C 255.00781 93.101074 255.77393 93.250488 256.68018 93.250488 L 258.35156 93.246094 C 261.375 93.246094 266.55029 93.339343 266.55029 86.913574 L 266.58545 85.492676 C 266.58545 79.477063 270.32472 75.480469 276.96533 75.480469 C 283.84033 75.480469 288.50391 79.652846 288.50391 86.312988 C 288.50391 87.824705 288.28076 89.210452 287.85498 90.440918 C 288.01123 90.874512 288.20654 91.281738 288.44092 91.633301 C 289.14404 92.680174 290.39063 93.194824 292.19531 93.194824 L 299.8125 93.194824 L 299.8125 72.695801 C 299.8125 72.215332 299.17529 71.57373 298.54248 71.57373 L 297.22705 71.57373 L 297.22705 68.934082 L 304.32861 68.934082 C 304.95361 68.934082 305.22266 69.289063 305.21484 70.007813 L 305.21484 96.684082 L 293.1958 96.684082 C 293.08643 96.684082 292.98828 96.679199 292.89844 96.663574 C 291.39844 96.57373 290.1958 96.098142 289.27002 95.219238 C 288.28174 94.28174 287.6333 93.102048 287.32471 91.691895 C 285.58643 95.047356 281.95654 96.984375 276.47607 96.984375 C 272.09328 96.984375 269.47997 95.324217 267.65186 94.21875 C 265.94483 95.667967 263.49657 96.679688 260.13721 96.679688 L 257.47998 96.679688 L 257.47998 96.660645 C 256.00342 96.574708 254.79687 96.108886 253.875 95.245605 C 252.84375 94.288576 252.16797 93.086422 251.84766 91.633301 C 251.75391 92.367674 251.55518 93.054688 251.26611 93.679688 C 250.98486 94.308592 250.57422 94.843263 250.03125 95.29248 C 249.5 95.722167 248.83202 96.070801 248.01563 96.309082 C 247.19922 96.551269 246.17236 96.679688 244.94971 96.679688 L 238.38721 96.679688 C 236.68018 96.679688 235.3125 96.194824 234.29297 95.245605 C 233.25781 94.288576 232.58983 93.086422 232.26563 91.633301 C 232.10156 92.828611 231.69873 93.839844 231.06592 94.664063 C 230.41358 95.499998 229.42529 96.062013 228.07764 96.382324 C 227.20654 96.577636 224.88721 96.679688 224.88721 96.679688 L 204.78516 96.679688 C 204.78516 96.679688 203.09326 96.628418 202.96436 96.628418 C 196.47608 96.608887 192.52295 93.546374 192.52295 87.476074 C 192.52295 84.35108 193.58594 82.273436 194.55469 81.058594 L 197.61328 81.058594 L 197.61328 82.964355 C 196.47656 83.687011 195.25781 84.871588 195.25781 87.402832 C 195.25781 90.980949 197.85889 93.007813 202.96436 93.210938 C 202.96436 93.210938 203.54249 93.250488 205.60107 93.250488 L 224.59424 93.250488 C 225.59814 93.250488 226.23828 93.047362 226.55859 92.629395 C 226.85937 92.223145 227.01563 91.43701 227.01563 90.300293 L 227.01563 84.011719 L 227.00391 84.011719 L 227.00391 72.543457 C 227.00391 72.059084 226.37939 71.421387 225.74268 71.421387 L 224.42139 71.421387 L 224.42139 68.777344 z M 309.96533 68.969238 L 317.05518 68.969238 C 317.69189 68.969238 317.96045 69.327639 317.94873 70.050293 L 317.94873 96.79248 L 312.54639 96.79248 L 312.54639 72.738281 C 312.54639 72.261721 311.91846 71.620605 311.27783 71.620605 L 309.96533 71.620605 L 309.96533 68.969238 z M 70.078125 75.773438 C 77.499986 75.773438 82.359375 79.85597 82.359375 86.629395 L 82.359375 96.79248 L 59.636719 96.79248 L 59.636719 93.32373 L 77.222168 93.32373 L 77.222168 86.671875 C 77.222168 81.261729 74.539542 78.60498 70.17627 78.60498 C 67.395024 78.60498 65.714355 79.250492 65.304199 81.344238 L 62.167969 81.344238 L 62.167969 76.905762 C 63.71484 76.296387 66.164071 75.773438 70.078125 75.773438 z M 127.69482 76.554199 C 131.52685 76.554199 134.8711 77.473148 137.71875 79.375488 C 140.40234 81.172359 141.71924 83.265629 141.71924 85.546875 C 141.17627 85.988281 138.09715 88.516122 132.51123 93.14502 C 133.21826 93.28955 133.99268 93.339844 134.69971 93.339844 L 148.68018 93.347168 C 149.61766 93.347168 150.24561 93.132813 150.56982 92.71875 C 150.89404 92.304688 151.06201 91.551267 151.06201 90.461426 L 151.06201 86.925293 C 151.06201 86.39795 150.42578 85.835449 149.82422 85.835449 L 148.05908 85.835449 L 148.05908 83.085938 L 155.96484 83.085938 L 155.96484 83.093262 L 155.98096 83.093262 L 155.98096 87.789551 C 155.98096 88.586424 156.05518 89.323732 156.22705 90.007324 C 156.37158 90.687011 156.64404 91.273926 156.9917 91.773926 C 157.34326 92.27783 157.83643 92.664063 158.45361 92.929688 C 159.06689 93.207029 159.80518 93.347168 160.68018 93.347168 L 161.70264 93.347168 C 162.60498 93.347168 163.74658 93.132813 164.07861 92.71875 C 164.39893 92.304688 164.55029 91.551267 164.55029 90.461426 L 164.55029 84.194824 C 164.51514 83.683107 163.90576 83.163574 163.34326 83.163574 L 161.56201 83.163574 L 161.56201 80.425781 L 169.47656 80.425781 L 169.47656 88.054688 C 169.50391 88.757811 169.56299 89.409669 169.70361 90.007324 C 169.86768 90.687011 170.12109 91.273926 170.48438 91.773926 C 170.83593 92.27783 171.31982 92.664063 171.94482 92.929688 C 172.56201 93.207029 173.29688 93.347168 174.17578 93.347168 L 178.39893 93.347168 L 178.39893 86.687988 L 178.38281 86.687988 L 178.38281 81.503906 C 178.38281 80.972658 177.74609 80.414063 177.15234 80.414063 L 175.38721 80.414063 L 175.38721 77.66748 L 183.28857 77.66748 L 183.28857 96.79248 L 175.48096 96.79248 C 173.76611 96.79248 172.40283 96.309081 171.37939 95.348145 C 170.37159 94.39502 169.68359 93.175291 169.37109 91.706543 C 169.14453 93.233883 168.52391 94.456544 167.52393 95.38623 C 166.52002 96.319824 164.8208 96.79248 162.43799 96.79248 L 161.99561 96.79248 C 160.28076 96.79248 158.90576 96.309081 157.89404 95.348145 C 156.87061 94.39502 156.20264 93.175291 155.87842 91.706543 C 155.78076 92.479979 155.58545 93.175783 155.29248 93.796875 C 154.99951 94.414061 154.58984 94.940919 154.05469 95.38623 C 153.52734 95.839355 152.83984 96.179201 151.99219 96.41748 C 151.15625 96.671386 150.14404 96.79248 148.94092 96.79248 L 134.09033 96.79248 C 132.45361 96.79248 129.91844 96.409665 127.57471 94.91748 C 124.74268 96.792478 121.37842 96.79248 121.37842 96.79248 L 106.19092 96.79248 C 104.28076 99.909661 102.10889 102.04736 100.23779 103.02393 L 96.098145 103.02393 L 96.098145 100.60107 C 98.469233 99.952642 99.832525 98.769038 101.37158 96.79248 L 89.022949 96.79248 C 88.413576 95.589359 87.914063 94.308103 87.515625 92.960449 C 87.132813 91.604984 86.929688 90.285152 86.929688 88.992188 C 86.929688 87.27344 87.277346 85.711422 87.925781 84.320801 C 88.597656 82.926271 89.480959 81.737791 90.602051 80.749512 C 91.71533 79.761233 93.019046 78.995605 94.507324 78.464355 C 95.991697 77.933107 97.554202 77.66748 99.171387 77.66748 L 107.56201 77.66748 L 107.56201 93.347168 L 120.5625 93.347168 C 121.26953 93.347168 121.93359 93.28955 122.63672 93.14502 C 121.37891 92.16846 118.36669 89.640617 113.53857 85.546875 C 113.53857 83.265629 114.91358 81.171871 117.65186 79.324219 C 120.44481 77.47266 123.78468 76.554199 127.69482 76.554199 z M 276.96533 78.164063 C 273.53175 78.164063 271.40625 80.969244 271.40625 84.309082 C 271.40625 84.309082 271.27733 86.562016 270.79688 88.858887 C 270.60547 89.784666 270.26514 90.746584 269.74951 91.668457 C 270.98779 92.930174 272.92628 94.21875 276.10986 94.21875 C 281.46923 94.21875 283.20361 91.812001 283.38721 86.913574 C 283.46533 85.835451 283.29639 84.309082 283.29639 84.309082 C 282.84326 80.172371 280.53955 78.164063 276.96533 78.164063 z M 127.69482 80.058105 C 125.01124 80.058105 122.76221 80.555178 120.95361 81.555176 C 119.46143 82.492674 118.58545 83.42969 118.40186 84.492188 C 120.46044 86.257809 123.50734 88.863287 127.69482 92.296875 L 136.91748 84.492188 C 136.72607 83.382815 135.92236 82.387205 134.48877 81.555176 C 132.68018 80.555178 130.3706 80.058105 127.69482 80.058105 z M 98.831543 81.117188 C 98.214358 81.117188 97.519529 81.227051 96.761719 81.461426 C 96.007815 81.691894 95.297363 82.070803 94.656738 82.621582 C 94.004396 83.168455 93.460938 83.883303 93 84.777832 C 92.546875 85.664549 92.327637 86.781252 92.327637 88.136719 C 92.327637 89.019529 92.417481 89.902834 92.608887 90.777832 C 92.808106 91.65283 93.140625 92.515139 93.585938 93.347168 L 102.12451 93.347168 L 102.12451 81.117188 L 98.831543 81.117188 z M 131.05078 119.56201 C 132.94922 119.56201 133.89014 120.06982 134.43311 120.33545 C 134.61279 120.33545 134.79639 120.01514 134.81982 119.74951 L 136.77686 119.74951 L 136.77686 124.69482 L 134.71143 124.69482 L 134.45654 122.82422 C 133.77686 122.17969 132.87109 121.53955 131.05078 121.53955 C 129.10938 121.53955 127.76514 122.29347 127.76514 124.31689 C 127.76514 126.51221 129.48047 126.88623 132.04688 127.57764 C 135.62499 128.54248 137.44189 129.69532 137.44189 133.14844 C 137.44189 136.73045 135.25731 138.66064 131.12842 138.66064 C 129.02686 138.66064 127.94971 138.18018 127.23486 137.77002 C 127.04346 137.77002 126.89404 138.06592 126.83936 138.46436 L 124.80029 138.46436 L 124.80029 133.01221 L 126.91406 133.01221 L 127.17627 135.27686 C 128.12158 136.19481 129.07422 136.70361 131.08594 136.70361 C 133.23047 136.70361 134.64404 135.71094 134.64404 133.65234 C 134.64404 131.1172 132.76562 130.81689 130.04297 130.0708 C 126.7461 129.16455 125.12549 127.79686 125.12549 124.61719 C 125.12549 121.2461 127.60938 119.56201 131.05078 119.56201 z M 82.253906 119.72314 C 83.160154 119.72314 83.901855 120.4458 83.901855 121.35205 C 83.901855 122.26221 83.160154 122.98828 82.253906 122.98828 C 81.312502 122.98828 80.594238 122.26221 80.594238 121.35205 C 80.594238 120.4458 81.312502 119.72314 82.253906 119.72314 z M 59.636719 119.74951 L 66.862793 119.74951 L 66.862793 121.51611 L 64.691895 121.51611 L 64.691895 129.77783 L 71.144531 122.96484 C 71.972654 122.10547 71.76123 121.51611 70.82373 121.51611 L 70.347656 121.51611 L 70.347656 119.74951 L 76.858887 119.74951 L 76.858887 121.51611 L 76.101563 121.51611 C 75.632813 121.51611 75.151855 121.86279 74.620605 122.39795 L 69.534668 127.47656 L 75.210938 135.89795 C 75.507811 136.35107 75.929688 136.75781 76.40625 136.75781 L 77.132813 136.75781 L 77.132813 138.46436 L 72.265137 138.46436 L 72.265137 136.85596 L 67.401855 129.62109 L 64.691895 132.34424 L 64.691895 136.75781 L 66.862793 136.75781 L 66.862793 138.46436 L 59.636719 138.46436 L 59.636719 136.75781 L 60.766113 136.75781 C 61.172363 136.75781 61.59375 136.26904 61.59375 135.89795 L 61.59375 122.39795 C 61.59375 121.99561 61.172363 121.51611 60.766113 121.51611 L 59.636719 121.51611 L 59.636719 119.74951 z M 179.36279 119.74951 L 183.75439 119.74951 C 184.12549 119.74951 184.28906 120.01563 184.28906 120.46875 L 184.28906 136.00781 C 184.28906 136.35156 184.66455 136.75781 185.0083 136.75781 L 186.04688 136.75781 L 186.04688 138.46436 L 182.01123 138.46436 C 181.68701 138.46436 181.48486 138.06689 181.4458 136.53955 C 180.46533 137.68799 178.9375 138.62842 176.80078 138.62842 C 173.96485 138.62842 170.97217 136.98778 170.97217 131.62061 C 170.97217 126.27686 174.28907 124.29346 177.09375 124.29346 C 179.18359 124.29346 180.48389 125.04248 181.39014 125.94873 L 181.39014 121.51611 L 179.36279 121.51611 L 179.36279 119.74951 z M 230.78906 119.84033 C 231.69922 119.84033 232.4458 120.56592 232.4458 121.47217 C 232.4458 122.37842 231.69922 123.09814 230.78906 123.09814 C 229.85938 123.09814 229.13232 122.37842 229.13232 121.47217 C 229.13232 120.56592 229.85938 119.84033 230.78906 119.84033 z M 290.58252 119.84033 C 291.48486 119.84033 292.23779 120.56592 292.23779 121.47217 C 292.23779 122.37842 291.48486 123.09814 290.58252 123.09814 C 289.65283 123.09814 288.92139 122.37842 288.92139 121.47217 C 288.92139 120.56592 289.65283 119.84033 290.58252 119.84033 z M 191.64404 119.86377 L 198.99609 119.86377 L 198.99609 121.62891 L 196.64502 121.62891 L 196.64502 131.95752 C 196.64502 135.69189 198.49219 136.62891 201.1875 136.62891 C 203.86328 136.62891 205.69922 135.71923 205.69922 131.95752 L 205.69922 121.62891 L 203.35547 121.62891 L 203.35547 119.86377 L 209.90625 119.86377 L 209.90625 121.62891 L 208.83984 121.62891 C 208.4375 121.62891 208.00342 122.11768 208.00342 122.51221 L 208.00342 131.78906 C 208.00342 136.55468 205.57421 138.76904 200.87109 138.76904 C 196.29298 138.76904 193.56592 136.55468 193.56592 131.78906 L 193.56592 122.51221 C 193.56592 122.11768 193.16357 121.62891 192.71045 121.62891 L 191.64404 121.62891 L 191.64404 119.86377 z M 295.89404 120.8042 L 298.79297 120.8042 L 298.79297 124.57031 L 301.96875 124.57031 L 301.96875 126.38672 L 298.79297 126.38672 L 298.79297 134.9458 C 298.79297 136.52783 299.32031 136.86328 300.73828 136.86328 L 302.14453 136.86328 L 302.14453 138.42188 C 301.64453 138.61327 300.8164 138.76904 299.82422 138.76904 C 297.34375 138.76904 295.89404 137.8911 295.89404 135.26221 L 295.89404 126.38672 L 294.10547 126.38672 L 294.10547 124.57031 L 295.89404 124.57031 L 295.89404 120.8042 z M 97.554199 124.29346 C 99.546382 124.29346 101.21484 125.01563 101.21484 127.76953 L 101.21484 136.02686 C 101.21484 136.40967 101.58154 136.75781 101.91357 136.75781 L 102.79688 136.75781 L 102.79688 138.46436 L 96.398438 138.46436 L 96.398438 136.75781 L 98.320313 136.75781 L 98.320313 128.72607 C 98.320313 126.99171 97.554197 126.56689 96.13623 126.56689 C 94.64014 126.56689 93.24951 127.17627 92.046387 127.90283 L 92.046387 136.75781 L 93.996094 136.75781 L 93.996094 138.46436 L 87.391113 138.46436 L 87.391113 136.75781 L 88.434082 136.75781 C 88.785644 136.75781 89.148926 136.37842 89.148926 136.02686 L 89.148926 127.02686 C 89.148926 126.69873 88.785644 126.27686 88.434082 126.27686 L 87.285645 126.27686 L 87.285645 124.45752 L 91.371094 124.45752 C 91.773436 124.45752 92.069825 124.83252 92.046387 126.16846 L 92.046387 126.54346 C 93.437008 125.26221 95.386234 124.29346 97.554199 124.29346 z M 110.38623 124.29346 C 110.99951 124.29346 111.58936 124.34816 112.12061 124.45752 L 116.93701 124.45752 L 116.93701 126.27686 L 115.73438 126.27686 C 115.46875 126.27686 115.14111 126.48389 115.14111 126.75732 C 115.55126 127.3081 115.75781 128.00391 115.75781 128.78906 C 115.75781 131.375 113.70654 133.11768 110.38623 133.11768 C 109.34326 133.11768 108.5083 132.95654 107.79346 132.66357 C 107.55127 133.01123 107.41846 133.40674 107.41846 133.84424 C 107.41846 134.53565 107.875 134.83594 108.72656 134.83594 L 112.67139 134.83594 C 115.43699 134.83594 116.92236 135.92629 116.92236 138.29736 C 116.92236 141.05518 114.98826 143.06689 109.82813 143.06689 C 105.53516 143.06689 103.91748 141.67187 103.91748 139.74609 C 103.91748 138.1133 105.06201 137.23388 106.34326 136.60107 C 105.73389 136.26904 105.25049 135.6333 105.25049 134.69971 C 105.25049 133.57471 105.84326 132.77001 106.67139 132.09814 C 105.65185 131.35597 105.03955 130.19922 105.03955 128.78906 C 105.03955 126.14065 107.07764 124.29346 110.38623 124.29346 z M 146.05078 124.29346 C 149.33984 124.29346 151.26563 125.33594 151.26563 128.4375 L 151.26563 135.89795 C 151.26563 136.4292 151.60986 136.75781 152.12549 136.75781 L 152.84033 136.75781 L 152.84033 138.19922 C 152.46533 138.43359 151.80029 138.62842 150.9917 138.62842 C 149.46826 138.62842 148.66748 138.00732 148.46045 136.72998 C 147.42139 138.00732 146.05078 138.62842 144.17578 138.62842 C 141.50782 138.62842 139.6333 137.23388 139.6333 134.45654 C 139.6333 131.56202 141.93311 130.19971 145.16748 130.19971 C 146.41748 130.19971 147.39014 130.34033 148.37842 130.57471 L 148.37842 128.72607 C 148.37842 126.94093 147.34033 126.29736 145.55127 126.29736 C 143.69971 126.29736 142.65967 126.94189 141.90967 127.60986 L 140.5708 127.60986 L 140.5708 125.39063 C 141.77002 124.80469 143.48047 124.29346 146.05078 124.29346 z M 221.00391 124.40625 C 223.01561 124.40625 224.66748 125.13672 224.66748 127.88672 L 224.66748 136.14844 C 224.66748 136.52734 225.04639 136.86328 225.35889 136.86328 L 226.24658 136.86328 L 226.24658 138.58594 L 219.84814 138.58594 L 219.84814 136.86328 L 221.78467 136.86328 L 221.78467 128.85498 C 221.78467 127.10889 221.00439 126.68701 219.59033 126.68701 C 218.08643 126.68701 216.6914 127.29736 215.49609 128.02002 L 215.49609 136.86328 L 217.45313 136.86328 L 217.45313 138.58594 L 210.83936 138.58594 L 210.83936 136.86328 L 211.89111 136.86328 C 212.23096 136.86328 212.61328 136.49219 212.61328 136.14844 L 212.61328 127.13672 C 212.61328 126.82422 212.23096 126.38672 211.89111 126.38672 L 210.73828 126.38672 L 210.73828 124.57031 L 214.83545 124.57031 C 215.22998 124.57031 215.52344 124.94972 215.49609 126.28564 L 215.49609 126.66064 C 216.88281 125.3755 218.83985 124.40625 221.00391 124.40625 z M 256.13672 124.40625 C 260.06639 124.40625 262.34766 126.46827 262.34766 131.15186 C 262.34766 131.55029 262.32422 131.92188 262.32422 132.03516 L 252.34424 132.03516 C 252.44971 135.29686 253.85108 136.89404 256.65967 136.89404 C 258.62842 136.89404 259.53516 136.19971 260.26172 135.3208 L 261.90674 135.3208 L 261.90674 137.29688 C 260.81299 138.01952 259.2417 138.75 256.42529 138.75 C 251.73 138.75 249.3208 136.01611 249.3208 131.62939 C 249.3208 127.19582 252.07422 124.40625 256.13672 124.40625 z M 280.79297 124.40625 C 283.00781 124.40625 284.36768 124.73438 285.39111 125.10938 L 285.39111 127.88672 L 283.70654 127.88672 C 283.40967 126.84375 282.64012 126.33984 280.68311 126.33984 C 278.96826 126.33984 277.96143 127.03125 277.96143 128.17969 C 277.96143 129.40625 278.70703 129.84033 281.13281 130.21143 C 284.33984 130.6958 285.84375 131.55078 285.84375 134.33203 C 285.84375 137.0039 283.97215 138.75 280.09717 138.75 C 277.58155 138.75 276.23828 138.34424 275.22656 137.9458 L 275.22656 135.03076 L 276.96533 135.03076 C 277.30127 136.33935 278.19873 136.86328 280.07373 136.86328 C 281.9917 136.86328 283.16748 136.18017 283.16748 134.73486 C 283.16748 133.42627 282.20703 133.04736 279.82031 132.67236 C 276.93751 132.24658 275.44922 131.33642 275.44922 128.55908 C 275.44922 125.9419 277.44141 124.40625 280.79297 124.40625 z M 79.007813 124.45752 L 83.238281 124.45752 C 83.617188 124.45752 83.77002 124.77734 83.77002 125.68359 L 83.77002 136.02686 C 83.77002 136.40967 84.14795 136.75781 84.499512 136.75781 L 85.546875 136.75781 L 85.546875 138.46436 L 79.117676 138.46436 L 79.117676 136.75781 L 80.163574 136.75781 C 80.51123 136.75781 80.882813 136.37842 80.882813 136.02686 L 80.882813 127.02686 C 80.882813 126.69873 80.538573 126.27686 80.187012 126.27686 L 79.007813 126.27686 L 79.007813 124.45752 z M 153.85107 124.45752 L 158.49609 124.45752 L 158.49609 134.26904 C 158.49609 136.08935 159.43311 136.53955 160.7417 136.53955 C 162.19092 136.53955 163.60987 135.89893 164.72314 135.15674 L 164.72314 126.27686 L 162.71924 126.27686 L 162.71924 124.45752 L 167.60889 124.45752 L 167.60889 136.00781 C 167.60889 136.35156 167.98779 136.75781 168.37061 136.75781 L 169.43701 136.75781 L 169.43701 138.46436 L 165.39844 138.46436 C 165.02344 138.46436 164.75391 138.14502 164.75391 136.83252 L 164.75391 136.49268 C 163.3086 137.77001 161.62109 138.66064 159.35156 138.66064 C 157.40235 138.66064 155.60596 137.87109 155.60596 135.17578 L 155.60596 126.9917 C 155.60596 126.64404 155.22998 126.27686 154.87061 126.27686 L 153.85107 126.27686 L 153.85107 124.45752 z M 273.28564 124.46924 C 273.59814 124.46924 273.85938 124.51562 274.07813 124.57031 L 274.07813 126.95361 L 273.51563 126.95361 C 271.37891 126.95361 270.14893 127.45703 269.11377 128.36719 L 269.11377 136.86328 L 271.32861 136.86328 L 271.32861 138.58594 L 264.45264 138.58594 L 264.45264 136.86328 L 265.49268 136.86328 C 265.84424 136.86328 266.22217 136.49219 266.22217 136.14844 L 266.22217 127.13672 C 266.22217 126.82422 265.84424 126.38672 265.49268 126.38672 L 264.34717 126.38672 L 264.34717 124.57031 L 268.43701 124.57031 C 268.83936 124.57031 269.11377 124.91748 269.11377 126.44092 L 269.11377 126.89795 C 270.09424 125.64014 271.32863 124.46924 273.28564 124.46924 z M 227.55469 124.57031 L 231.78076 124.57031 C 232.15967 124.57031 232.30518 124.89111 232.30518 125.80518 L 232.30518 136.14844 C 232.30518 136.52734 232.69971 136.86328 233.04346 136.86328 L 234.07764 136.86328 L 234.07764 138.58594 L 227.66455 138.58594 L 227.66455 136.86328 L 228.70752 136.86328 C 229.05518 136.86328 229.42529 136.49219 229.42529 136.14844 L 229.42529 127.13672 C 229.42529 126.82422 229.07373 126.38672 228.73389 126.38672 L 227.55469 126.38672 L 227.55469 124.57031 z M 234.3208 124.57031 L 240.49219 124.57031 L 240.49219 126.38672 L 238.51904 126.38672 L 241.98486 135.77783 L 242.05078 135.77783 L 245.01563 127.94531 C 245.33593 127.0625 245.27783 126.38672 244.29346 126.38672 L 243.60205 126.38672 L 243.60205 124.57031 L 249.21533 124.57031 L 249.21533 126.38672 L 248.72607 126.38672 C 248.24951 126.38672 247.87451 126.70654 247.63623 127.27295 L 243.03516 138.58594 L 240.38232 138.58594 L 235.84717 127.24658 C 235.63233 126.74268 235.28076 126.38672 234.85107 126.38672 L 234.3208 126.38672 L 234.3208 124.57031 z M 287.33643 124.57031 L 291.5625 124.57031 C 291.9375 124.57031 292.10156 124.89112 292.10156 125.80518 L 292.10156 136.14844 C 292.10156 136.52734 292.46826 136.86328 292.82373 136.86328 L 293.87549 136.86328 L 293.87549 138.58594 L 287.45361 138.58594 L 287.45361 136.86328 L 288.49219 136.86328 C 288.84375 136.86328 289.21143 136.49219 289.21143 136.14844 L 289.21143 127.13672 C 289.21143 126.82422 288.86327 126.38672 288.51563 126.38672 L 287.33643 126.38672 L 287.33643 124.57031 z M 303.49219 124.57031 L 309.70313 124.57031 L 309.70313 126.38672 L 307.6333 126.38672 L 311.22656 135.00439 L 314.10498 127.94531 C 314.48388 127.03125 314.43408 126.38672 313.43408 126.38672 L 312.75 126.38672 L 312.75 124.57031 L 318.47314 124.57031 L 318.47314 126.38672 L 317.85205 126.38672 C 317.42236 126.38672 317.05078 126.7417 316.80469 127.27295 L 312.37939 137.50781 C 311.09425 140.47656 309.64451 142.10888 308.28516 142.91748 L 305.84326 142.91748 L 305.84326 141.31201 C 307.40185 140.83154 308.68018 139.84033 309.71924 138.23877 L 304.99219 127.24658 C 304.77734 126.74268 304.43018 126.38672 304.00049 126.38672 L 303.49219 126.38672 L 303.49219 124.57031 z M 110.38623 126.09375 C 108.68701 126.09375 107.71436 127.12891 107.71436 128.78906 C 107.71436 130.42187 108.68701 131.43311 110.38623 131.43311 C 112.1206 131.43311 113.08594 130.42187 113.08594 128.78906 C 113.08594 127.12891 112.1206 126.09375 110.38623 126.09375 z M 256.13672 126.20654 C 254.02735 126.20654 252.66064 127.54248 252.39111 130.29639 L 259.42236 130.29639 C 259.32471 127.32373 258.17578 126.20654 256.13672 126.20654 z M 178.03125 126.32373 C 175.97266 126.32373 173.96484 127.44874 173.96484 131.53857 C 173.96484 135.81591 175.83936 136.83252 177.62842 136.83252 C 179.31201 136.83252 180.46436 135.97656 181.39014 134.96484 L 181.39014 127.5 C 180.51514 126.80859 179.47656 126.32373 178.03125 126.32373 z M 145.76221 131.91357 C 143.72315 131.91357 142.5 132.63623 142.5 134.37451 C 142.5 136.08935 143.45264 136.77686 145.08545 136.77686 C 146.5581 136.77686 147.51514 136.13721 148.37842 135.22705 L 148.37842 132.1875 C 147.57373 132.01953 146.69189 131.91357 145.76221 131.91357 z M 107.46826 137.33936 C 106.87842 137.81981 106.53516 138.35205 106.53516 139.16455 C 106.53516 140.41846 107.28857 141.22266 109.95264 141.22266 C 112.90183 141.22266 114.18311 140.22999 114.18311 138.92139 C 114.18311 137.81983 113.57078 137.33936 112.02393 137.33936 L 107.46826 137.33936 z " />
    <path
       style="display:inline;fill:#ffffff;fill-opacity:1;fill-rule:nonzero;stroke:none"
       d="m 365.07812,39.59375 c 0,0 6.57032,-1.917969 13.38672,0.664063 -9.95703,2.230468 -13.30468,11.066406 -13.30468,11.066406 0,0 6.13281,-5.960938 14.11718,-6.929688 -4.32812,4.046875 -4.58593,11.460938 -4.58593,11.460938 0,0 3.09375,-6.933594 8.42578,-9.53125 0.0351,1.792969 0.0547,3.792969 0.0547,6.101562 0,7.21875 -0.17578,13.691407 -0.46093,18.816407 -1.16407,-0.527344 -2.19532,-0.570313 -2.19532,-0.570313 0,0 0.88672,0.722656 1.69532,1.992188 -1.96485,-0.464844 -3.7461,-0.109375 -3.7461,-0.109375 0,0 0.0156,0.02344 0.0508,0.09766 1.97266,0.777344 4.02735,1.742187 6.13672,2.914062 1.91016,-1.0625 3.76953,-1.953125 5.58203,-2.691406 0.0234,-0.06641 0.0469,-0.09766 0.0469,-0.09766 0,0 -1.58203,-0.347656 -3.42188,-0.03125 0.82813,-1.324219 1.75391,-2.074219 1.75391,-2.074219 0,0 -0.92578,0.04297 -2.01953,0.5 -0.28125,-5.109375 -0.45313,-11.5625 -0.45313,-18.746094 0,-2.308593 0.0156,-4.308593 0.0508,-6.101562 5.32031,2.597656 8.43359,9.53125 8.43359,9.53125 0,0 -0.26563,-7.414063 -4.58594,-11.460938 7.98438,0.972657 14.11328,6.929688 14.11328,6.929688 0,0 -3.35547,-8.835938 -13.32031,-11.066406 6.83203,-2.582032 13.39063,-0.664063 13.39063,-0.664063 0,0 -8.19532,-5.125 -16.17579,-3.125 2.6875,-2.652344 6.16797,-3.460937 6.16797,-3.460937 0,0 -4.375,-0.578125 -7.85547,0.863281 -0.46875,-2.144531 -1.20703,-4.554688 -1.73828,-5.464844 -0.52343,0.910156 -1.23047,3.316406 -1.67968,5.464844 -3.48438,-1.441406 -7.84375,-0.863281 -7.84375,-0.863281 0,0 3.48437,0.808593 6.16796,3.460937 -7.98437,-2 -16.1875,3.125 -16.1875,3.125"
       id="path4" />
    <path
       style="stroke:none;fill-rule:nonzero;fill:#ffffff;fill-opacity:1"
       d="M 398.582031 89.34375 C 397.871094 89.332031 397.238281 89.65625 396.914063 90.128906 C 396.457031 89.832031 395.496094 89.175781 393.378906 87.730469 C 393.703125 87.21875 393.878906 86.765625 393.839844 86.4375 C 393.816406 86.257813 393.738281 86.113281 393.613281 86.023438 C 393.242188 85.773438 392.511719 86.023438 391.710938 86.578125 C 390.507813 85.757813 389.058594 84.757813 387.28125 83.53125 C 387.679688 83.261719 388.089844 82.980469 388.511719 82.695313 C 399.792969 74.992188 406.632813 74.359375 410.753906 74.25 C 410.753906 74.25 399.375 71.5625 385.472656 81.152344 C 385.191406 81.34375 384.917969 81.53125 384.648438 81.71875 C 384.378906 81.53125 384.109375 81.34375 383.828125 81.152344 C 369.925781 71.5625 358.550781 74.25 358.550781 74.25 C 362.675781 74.359375 369.507813 74.992188 380.789063 82.695313 C 381.210938 82.980469 381.621094 83.261719 382.023438 83.53125 C 380.253906 84.757813 378.792969 85.757813 377.597656 86.578125 C 376.796875 86.023438 376.054688 85.777344 375.695313 86.023438 C 375.558594 86.113281 375.480469 86.257813 375.460938 86.4375 C 375.425781 86.765625 375.601563 87.214844 375.917969 87.730469 C 373.8125 89.175781 372.839844 89.832031 372.40625 90.128906 C 372.054688 89.65625 371.4375 89.332031 370.722656 89.34375 C 369.667969 89.359375 368.824219 90.085938 368.84375 90.96875 C 368.855469 91.546875 369.234375 92.046875 369.792969 92.324219 C 370.128906 92.503906 370.550781 92.621094 371.0625 92.605469 C 373.15625 92.585938 375.71875 91.0625 377.78125 89.734375 C 378.460938 90.257813 379.117188 90.578125 379.5625 90.578125 C 379.714844 90.578125 379.84375 90.542969 379.941406 90.480469 C 380.0625 90.394531 380.140625 90.246094 380.171875 90.070313 C 380.203125 89.695313 379.988281 89.15625 379.585938 88.5625 C 379.765625 88.445313 379.9375 88.34375 380.097656 88.246094 L 380.0625 88.261719 C 381.339844 87.480469 382.847656 86.507813 384.648438 85.308594 C 386.457031 86.507813 387.957031 87.480469 389.242188 88.261719 L 389.207031 88.246094 C 389.367188 88.34375 389.539063 88.445313 389.71875 88.5625 C 389.324219 89.15625 389.089844 89.695313 389.132813 90.070313 C 389.160156 90.246094 389.234375 90.394531 389.363281 90.480469 C 389.46875 90.542969 389.59375 90.578125 389.746094 90.578125 C 390.1875 90.578125 390.84375 90.257813 391.53125 89.734375 C 393.582031 91.0625 396.148438 92.585938 398.242188 92.605469 C 398.75 92.621094 399.175781 92.503906 399.519531 92.3125 C 400.066406 92.039063 400.457031 91.546875 400.460938 90.96875 C 400.480469 90.085938 399.636719 89.359375 398.582031 89.34375 "
       id="path5" />
    <path
       style="stroke:none;fill-rule:nonzero;fill:#ffffff;fill-opacity:1"
       d="M 379.972656 114.96875 C 378.828125 114.96875 378.410156 115.777344 378.410156 116.828125 C 378.410156 117.859375 378.96875 118.394531 379.929688 118.394531 C 380.601563 118.394531 381.289063 118.152344 381.691406 117.859375 C 381.636719 115.777344 381.035156 114.96875 379.972656 114.96875 "
       id="path10" />
    <path
       style="stroke:none;fill-rule:nonzero;fill:#ffffff;fill-opacity:1"
       d="M 398.34375 115.511719 L 394.972656 123.4375 L 392.890625 123.4375 L 392.890625 122.582031 L 396.734375 115.414063 L 396.734375 115.359375 L 391.734375 115.359375 L 391.734375 113.65625 L 398.34375 113.65625 Z M 387.355469 123.546875 C 386.085938 123.546875 385.328125 123.253906 384.671875 122.847656 L 384.671875 121.300781 L 385.46875 121.300781 C 385.789063 121.636719 386.417969 121.980469 387.328125 121.980469 C 388.402344 121.980469 389.226563 121.394531 389.226563 120.304688 C 389.226563 119.1875 388.601563 118.710938 387.804688 118.710938 C 386.964844 118.710938 386.53125 119.074219 386.265625 119.371094 L 384.964844 119.371094 L 384.964844 113.65625 L 390.863281 113.65625 L 390.863281 115.359375 L 386.53125 115.359375 L 386.53125 117.648438 L 386.574219 117.648438 C 386.910156 117.414063 387.496094 117.160156 388.347656 117.160156 C 390.050781 117.160156 391.394531 118.113281 391.394531 120.234375 C 391.394531 122.304688 389.730469 123.546875 387.355469 123.546875 M 378.96875 123.546875 C 378.03125 123.546875 377.359375 123.394531 376.773438 123.15625 L 376.773438 121.550781 L 377.570313 121.550781 C 377.78125 121.761719 378.28125 122.011719 379.066406 122.011719 C 380.910156 122.011719 381.496094 120.976563 381.652344 119.230469 C 381.066406 119.660156 380.226563 119.859375 379.441406 119.859375 C 377.554688 119.859375 376.257813 118.808594 376.257813 116.894531 C 376.257813 114.96875 377.738281 113.542969 379.972656 113.542969 C 382.210938 113.542969 383.875 115.105469 383.875 118.335938 C 383.875 121.675781 382.125 123.546875 378.96875 123.546875 M 374.71875 123.4375 L 372.539063 123.4375 L 372.539063 115.945313 L 371.378906 116.558594 L 370.820313 116.558594 L 370.820313 115.105469 L 373.265625 113.65625 L 374.71875 113.65625 Z M 396.835938 105.089844 C 392.898438 103.28125 389.726563 103.597656 388.140625 104.292969 C 386.574219 104.988281 385.304688 107.730469 384.664063 110.804688 C 384.65625 110.8125 384.65625 110.8125 384.648438 111.359375 C 384.648438 110.8125 384.636719 110.8125 384.632813 110.804688 C 384.007813 107.730469 382.738281 104.988281 381.152344 104.292969 C 379.574219 103.597656 376.390625 103.28125 372.46875 105.089844 C 366.710938 107.757813 363.210938 107.359375 361.269531 107.191406 L 366.375 130.878906 C 366.375 130.878906 368.863281 130.734375 373.660156 129.144531 C 378.109375 127.671875 382.230469 128.828125 384.648438 131.601563 C 387.050781 128.828125 391.191406 127.671875 395.648438 129.144531 C 400.429688 130.734375 402.925781 130.878906 402.925781 130.878906 L 408.035156 107.191406 C 406.105469 107.359375 402.585938 107.757813 396.835938 105.089844 "
       id="path11" />
  </g>
</svg>
