<?xml version="1.0" encoding="UTF-8" standalone="no"?>
<svg
   width="450.61pt"
   height="173.11pt"
   viewBox="0 0 450.61 173.11"
   version="1.1"
   id="svg39"
   sodipodi:docname="King_Saud.svg"
   inkscape:version="1.3 (0e150ed6c4, 2023-07-21)"
   xmlns:inkscape="http://www.inkscape.org/namespaces/inkscape"
   xmlns:sodipodi="http://sodipodi.sourceforge.net/DTD/sodipodi-0.dtd"
   xmlns="http://www.w3.org/2000/svg"
   xmlns:svg="http://www.w3.org/2000/svg">
  <sodipodi:namedview
     id="namedview39"
     pagecolor="#ffffff"
     bordercolor="#ffffff"
     borderopacity="1"
     inkscape:showpageshadow="0"
     inkscape:pageopacity="0"
     inkscape:pagecheckerboard="false"
     inkscape:deskcolor="#d1d1d1"
     inkscape:document-units="pt"
     inkscape:zoom="1.4028838"
     inkscape:cx="282.27569"
     inkscape:cy="100.15084"
     inkscape:current-layer="svg39" />
  <defs
     id="defs1">
    <clipPath
       id="clip1">
      <path
         d="M 0 0 L 450.609375 0 L 450.609375 173.109375 L 0 173.109375 Z M 0 0 "
         id="path1" />
    </clipPath>
  </defs>
  <g
     id="surface1">
    <g
       clip-path="url(#clip1)"
       clip-rule="nonzero"
       id="g2"
       style="display:inline">
      <path
         style="display:inline;fill:#0082bd;fill-opacity:1;fill-rule:nonzero;stroke:none"
         d="m 427.86719,107.15234 c 0,23.81641 -19.39063,43.19141 -43.19532,43.19141 -23.80859,0 -43.23437,-19.375 -43.23437,-43.19141 V 30.359375 c 15.02734,-3.535156 29.57422,-8.683594 43.21484,-15.179687 13.64453,6.496093 28.19532,11.644531 43.21485,15.179687 z M 0,0 v 173.10937 h 384.21875 v -0.004 c 0.13281,0 0.26562,0.004 0.41406,0.004 36.4375,0 65.98047,-29.54296 65.98047,-65.98828 V 0"
         id="path2" />
    </g>
    <path
       style=" stroke:none;fill-rule:nonzero;fill:rgb(100%,100%,100%);fill-opacity:1;"
       d="M 394.214844 33.007813 C 394.214844 33.007813 390.734375 33.816406 388.046875 36.46875 C 396.027344 34.46875 404.222656 39.59375 404.222656 39.59375 C 404.222656 39.59375 397.664063 37.675781 390.832031 40.257813 C 400.796875 42.484375 404.152344 51.324219 404.152344 51.324219 C 404.152344 51.324219 398.023438 45.367188 390.039063 44.394531 C 394.359375 48.441406 394.625 55.855469 394.625 55.855469 C 394.625 55.855469 391.511719 48.921875 386.191406 46.324219 C 386.15625 48.117188 386.140625 50.117188 386.140625 52.425781 C 386.140625 59.609375 386.3125 66.0625 386.59375 71.171875 C 387.6875 70.714844 388.613281 70.671875 388.613281 70.671875 C 388.613281 70.671875 387.6875 71.421875 386.859375 72.746094 C 388.699219 72.429688 390.28125 72.777344 390.28125 72.777344 C 390.28125 72.777344 390.257813 72.808594 390.234375 72.875 C 388.421875 73.613281 386.5625 74.503906 384.652344 75.566406 C 382.542969 74.394531 380.488281 73.429688 378.515625 72.652344 C 378.480469 72.578125 378.464844 72.554688 378.464844 72.554688 C 378.464844 72.554688 380.246094 72.195313 382.210938 72.664063 C 381.402344 71.394531 380.515625 70.671875 380.515625 70.671875 C 380.515625 70.671875 381.546875 70.714844 382.710938 71.242188 C 382.996094 66.117188 383.171875 59.644531 383.171875 52.425781 C 383.171875 50.117188 383.152344 48.117188 383.117188 46.324219 C 377.785156 48.921875 374.691406 55.855469 374.691406 55.855469 C 374.691406 55.855469 374.949219 48.441406 379.277344 44.394531 C 371.292969 45.363281 365.160156 51.324219 365.160156 51.324219 C 365.160156 51.324219 368.507813 42.484375 378.464844 40.257813 C 371.648438 37.675781 365.078125 39.59375 365.078125 39.59375 C 365.078125 39.59375 373.28125 34.46875 381.265625 36.46875 C 378.582031 33.816406 375.097656 33.007813 375.097656 33.007813 C 375.097656 33.007813 379.457031 32.429688 382.941406 33.871094 C 383.390625 31.722656 384.097656 29.316406 384.621094 28.402344 C 385.152344 29.316406 385.890625 31.726563 386.359375 33.871094 C 389.839844 32.429688 394.214844 33.007813 394.214844 33.007813 M 410.753906 74.246094 C 406.632813 74.359375 399.792969 74.992188 388.511719 82.695313 C 388.089844 82.980469 387.679688 83.261719 387.28125 83.53125 C 389.058594 84.757813 390.507813 85.757813 391.710938 86.578125 C 392.511719 86.023438 393.242188 85.773438 393.613281 86.023438 C 393.738281 86.109375 393.816406 86.257813 393.839844 86.4375 C 393.878906 86.765625 393.703125 87.222656 393.378906 87.730469 C 395.496094 89.175781 396.457031 89.832031 396.914063 90.128906 C 397.238281 89.65625 397.871094 89.332031 398.582031 89.34375 C 399.636719 89.359375 400.480469 90.085938 400.460938 90.96875 C 400.457031 91.546875 400.066406 92.039063 399.519531 92.3125 C 399.175781 92.503906 398.75 92.621094 398.242188 92.605469 C 396.148438 92.585938 393.582031 91.0625 391.53125 89.734375 C 390.84375 90.257813 390.1875 90.578125 389.746094 90.578125 C 389.59375 90.578125 389.46875 90.542969 389.363281 90.480469 C 389.234375 90.394531 389.160156 90.246094 389.132813 90.070313 C 389.089844 89.695313 389.324219 89.15625 389.71875 88.5625 C 389.539063 88.445313 389.367188 88.34375 389.207031 88.246094 L 389.242188 88.261719 C 387.957031 87.480469 386.457031 86.507813 384.648438 85.308594 C 382.847656 86.507813 381.339844 87.480469 380.0625 88.261719 L 380.097656 88.246094 C 379.9375 88.34375 379.765625 88.445313 379.585938 88.5625 C 379.988281 89.15625 380.203125 89.695313 380.171875 90.070313 C 380.140625 90.246094 380.0625 90.394531 379.941406 90.480469 C 379.84375 90.542969 379.714844 90.578125 379.5625 90.578125 C 379.117188 90.578125 378.460938 90.257813 377.78125 89.734375 C 375.71875 91.0625 373.15625 92.585938 371.0625 92.605469 C 370.550781 92.621094 370.128906 92.503906 369.792969 92.324219 C 369.234375 92.046875 368.855469 91.546875 368.84375 90.96875 C 368.824219 90.085938 369.667969 89.359375 370.722656 89.34375 C 371.4375 89.332031 372.054688 89.65625 372.40625 90.128906 C 372.839844 89.832031 373.8125 89.175781 375.917969 87.730469 C 375.601563 87.214844 375.425781 86.765625 375.460938 86.4375 C 375.480469 86.257813 375.558594 86.109375 375.695313 86.023438 C 376.054688 85.777344 376.796875 86.023438 377.597656 86.578125 C 378.792969 85.757813 380.253906 84.757813 382.023438 83.53125 C 381.621094 83.261719 381.210938 82.980469 380.789063 82.695313 C 369.507813 74.992188 362.675781 74.359375 358.550781 74.246094 C 358.550781 74.246094 369.925781 71.5625 383.828125 81.152344 C 384.109375 81.347656 384.378906 81.53125 384.648438 81.71875 C 384.917969 81.53125 385.191406 81.347656 385.472656 81.152344 C 399.375 71.5625 410.753906 74.246094 410.753906 74.246094 M 402.925781 130.878906 C 402.925781 130.878906 400.429688 130.734375 395.648438 129.144531 C 391.191406 127.671875 387.050781 128.828125 384.648438 131.601563 C 382.230469 128.828125 378.109375 127.671875 373.660156 129.144531 C 368.863281 130.734375 366.375 130.878906 366.375 130.878906 L 361.269531 107.191406 C 363.210938 107.359375 366.710938 107.757813 372.46875 105.089844 C 376.390625 103.28125 379.574219 103.597656 381.152344 104.292969 C 382.738281 104.988281 384.007813 107.730469 384.632813 110.804688 C 384.636719 110.8125 384.648438 110.8125 384.648438 111.359375 C 384.65625 110.8125 384.65625 110.8125 384.664063 110.804688 C 385.304688 107.730469 386.574219 104.988281 388.140625 104.292969 C 389.726563 103.597656 392.898438 103.28125 396.835938 105.089844 C 402.585938 107.757813 406.105469 107.359375 408.035156 107.191406 Z M 341.4375 30.359375 L 341.4375 107.152344 C 341.4375 130.96875 360.863281 150.34375 384.671875 150.34375 C 408.476563 150.34375 427.867188 130.96875 427.867188 107.152344 L 427.867188 30.359375 C 412.847656 26.824219 398.296875 21.675781 384.652344 15.179688 C 371.011719 21.675781 356.460938 26.824219 341.4375 30.359375 "
       id="path3" />
    <path
       style="display:inline;fill:#0082bd;fill-opacity:1;fill-rule:nonzero;stroke:none"
       d="m 365.07812,39.59375 c 0,0 6.57032,-1.917969 13.38672,0.664063 -9.95703,2.230468 -13.30468,11.066406 -13.30468,11.066406 0,0 6.13281,-5.960938 14.11718,-6.929688 -4.32812,4.046875 -4.58593,11.460938 -4.58593,11.460938 0,0 3.09375,-6.933594 8.42578,-9.53125 0.0351,1.792969 0.0547,3.792969 0.0547,6.101562 0,7.21875 -0.17578,13.691407 -0.46093,18.816407 -1.16407,-0.527344 -2.19532,-0.570313 -2.19532,-0.570313 0,0 0.88672,0.722656 1.69532,1.992188 -1.96485,-0.464844 -3.7461,-0.109375 -3.7461,-0.109375 0,0 0.0156,0.02344 0.0508,0.09766 1.97266,0.777344 4.02735,1.742187 6.13672,2.914062 1.91016,-1.0625 3.76953,-1.953125 5.58203,-2.691406 0.0234,-0.06641 0.0469,-0.09766 0.0469,-0.09766 0,0 -1.58203,-0.347656 -3.42188,-0.03125 0.82813,-1.324219 1.75391,-2.074219 1.75391,-2.074219 0,0 -0.92578,0.04297 -2.01953,0.5 -0.28125,-5.109375 -0.45313,-11.5625 -0.45313,-18.746094 0,-2.308593 0.0156,-4.308593 0.0508,-6.101562 5.32031,2.597656 8.43359,9.53125 8.43359,9.53125 0,0 -0.26563,-7.414063 -4.58594,-11.460938 7.98438,0.972657 14.11328,6.929688 14.11328,6.929688 0,0 -3.35547,-8.835938 -13.32031,-11.066406 6.83203,-2.582032 13.39063,-0.664063 13.39063,-0.664063 0,0 -8.19532,-5.125 -16.17579,-3.125 2.6875,-2.652344 6.16797,-3.460937 6.16797,-3.460937 0,0 -4.375,-0.578125 -7.85547,0.863281 -0.46875,-2.144531 -1.20703,-4.554688 -1.73828,-5.464844 -0.52343,0.910156 -1.23047,3.316406 -1.67968,5.464844 -3.48438,-1.441406 -7.84375,-0.863281 -7.84375,-0.863281 0,0 3.48437,0.808593 6.16796,3.460937 -7.98437,-2 -16.1875,3.125 -16.1875,3.125"
       id="path4" />
    <path
       style=" stroke:none;fill-rule:nonzero;fill:rgb(0%,51.756287%,74.021912%);fill-opacity:1;"
       d="M 398.582031 89.34375 C 397.871094 89.332031 397.238281 89.65625 396.914063 90.128906 C 396.457031 89.832031 395.496094 89.175781 393.378906 87.730469 C 393.703125 87.21875 393.878906 86.765625 393.839844 86.4375 C 393.816406 86.257813 393.738281 86.113281 393.613281 86.023438 C 393.242188 85.773438 392.511719 86.023438 391.710938 86.578125 C 390.507813 85.757813 389.058594 84.757813 387.28125 83.53125 C 387.679688 83.261719 388.089844 82.980469 388.511719 82.695313 C 399.792969 74.992188 406.632813 74.359375 410.753906 74.25 C 410.753906 74.25 399.375 71.5625 385.472656 81.152344 C 385.191406 81.34375 384.917969 81.53125 384.648438 81.71875 C 384.378906 81.53125 384.109375 81.34375 383.828125 81.152344 C 369.925781 71.5625 358.550781 74.25 358.550781 74.25 C 362.675781 74.359375 369.507813 74.992188 380.789063 82.695313 C 381.210938 82.980469 381.621094 83.261719 382.023438 83.53125 C 380.253906 84.757813 378.792969 85.757813 377.597656 86.578125 C 376.796875 86.023438 376.054688 85.777344 375.695313 86.023438 C 375.558594 86.113281 375.480469 86.257813 375.460938 86.4375 C 375.425781 86.765625 375.601563 87.214844 375.917969 87.730469 C 373.8125 89.175781 372.839844 89.832031 372.40625 90.128906 C 372.054688 89.65625 371.4375 89.332031 370.722656 89.34375 C 369.667969 89.359375 368.824219 90.085938 368.84375 90.96875 C 368.855469 91.546875 369.234375 92.046875 369.792969 92.324219 C 370.128906 92.503906 370.550781 92.621094 371.0625 92.605469 C 373.15625 92.585938 375.71875 91.0625 377.78125 89.734375 C 378.460938 90.257813 379.117188 90.578125 379.5625 90.578125 C 379.714844 90.578125 379.84375 90.542969 379.941406 90.480469 C 380.0625 90.394531 380.140625 90.246094 380.171875 90.070313 C 380.203125 89.695313 379.988281 89.15625 379.585938 88.5625 C 379.765625 88.445313 379.9375 88.34375 380.097656 88.246094 L 380.0625 88.261719 C 381.339844 87.480469 382.847656 86.507813 384.648438 85.308594 C 386.457031 86.507813 387.957031 87.480469 389.242188 88.261719 L 389.207031 88.246094 C 389.367188 88.34375 389.539063 88.445313 389.71875 88.5625 C 389.324219 89.15625 389.089844 89.695313 389.132813 90.070313 C 389.160156 90.246094 389.234375 90.394531 389.363281 90.480469 C 389.46875 90.542969 389.59375 90.578125 389.746094 90.578125 C 390.1875 90.578125 390.84375 90.257813 391.53125 89.734375 C 393.582031 91.0625 396.148438 92.585938 398.242188 92.605469 C 398.75 92.621094 399.175781 92.503906 399.519531 92.3125 C 400.066406 92.039063 400.457031 91.546875 400.460938 90.96875 C 400.480469 90.085938 399.636719 89.359375 398.582031 89.34375 "
       id="path5" />
    <path
       style="display:inline;fill:#ffffff;fill-opacity:1;fill-rule:nonzero;stroke:none"
       d="m 379.92969,118.39453 c -0.96094,0 -1.51953,-0.53515 -1.51953,-1.5664 0,-1.05079 0.41796,-1.85938 1.5625,-1.85938 1.0625,0 1.66406,0.80859 1.71875,2.89063 -0.40235,0.29296 -1.08985,0.53515 -1.76172,0.53515 m 0.043,-4.85156 c -2.23438,0 -3.71485,1.42578 -3.71485,3.35156 0,1.91406 1.29688,2.96485 3.1836,2.96485 0.78515,0 1.625,-0.19922 2.21093,-0.62891 -0.15625,1.74609 -0.74218,2.78125 -2.58593,2.78125 -0.78516,0 -1.28516,-0.25 -1.4961,-0.46094 h -0.79687 v 1.60547 c 0.58593,0.23828 1.25781,0.39063 2.19531,0.39063 3.15625,0 4.90625,-1.8711 4.90625,-5.21094 0,-3.23047 -1.66406,-4.79297 -3.90234,-4.79297"
       id="path6" />
    <path
       style=" stroke:none;fill-rule:nonzero;fill:rgb(100%,100%,100%);fill-opacity:1;"
       d="M 370.820313 115.105469 L 370.820313 116.558594 L 371.378906 116.558594 L 372.539063 115.945313 L 372.539063 123.4375 L 374.71875 123.4375 L 374.71875 113.65625 L 373.265625 113.65625 "
       id="path7" />
    <path
       style=" stroke:none;fill-rule:nonzero;fill:rgb(100%,100%,100%);fill-opacity:1;"
       d="M 388.347656 117.160156 C 387.496094 117.160156 386.910156 117.414063 386.574219 117.648438 L 386.53125 117.648438 L 386.53125 115.359375 L 390.863281 115.359375 L 390.863281 113.65625 L 384.964844 113.65625 L 384.964844 119.371094 L 386.265625 119.371094 C 386.53125 119.074219 386.964844 118.710938 387.804688 118.710938 C 388.601563 118.710938 389.226563 119.1875 389.226563 120.304688 C 389.226563 121.394531 388.402344 121.980469 387.328125 121.980469 C 386.417969 121.980469 385.789063 121.636719 385.46875 121.300781 L 384.671875 121.300781 L 384.671875 122.847656 C 385.328125 123.253906 386.085938 123.546875 387.355469 123.546875 C 389.730469 123.546875 391.394531 122.304688 391.394531 120.234375 C 391.394531 118.113281 390.050781 117.160156 388.347656 117.160156 "
       id="path8" />
    <path
       style=" stroke:none;fill-rule:nonzero;fill:rgb(100%,100%,100%);fill-opacity:1;"
       d="M 391.734375 115.359375 L 396.734375 115.359375 L 396.734375 115.414063 L 392.890625 122.582031 L 392.890625 123.4375 L 394.972656 123.4375 L 398.34375 115.511719 L 398.34375 113.65625 L 391.734375 113.65625 "
       id="path9" />
    <path
       style=" stroke:none;fill-rule:nonzero;fill:rgb(0%,51.756287%,74.021912%);fill-opacity:1;"
       d="M 379.972656 114.96875 C 378.828125 114.96875 378.410156 115.777344 378.410156 116.828125 C 378.410156 117.859375 378.96875 118.394531 379.929688 118.394531 C 380.601563 118.394531 381.289063 118.152344 381.691406 117.859375 C 381.636719 115.777344 381.035156 114.96875 379.972656 114.96875 "
       id="path10" />
    <path
       style=" stroke:none;fill-rule:nonzero;fill:rgb(0%,51.756287%,74.021912%);fill-opacity:1;"
       d="M 398.34375 115.511719 L 394.972656 123.4375 L 392.890625 123.4375 L 392.890625 122.582031 L 396.734375 115.414063 L 396.734375 115.359375 L 391.734375 115.359375 L 391.734375 113.65625 L 398.34375 113.65625 Z M 387.355469 123.546875 C 386.085938 123.546875 385.328125 123.253906 384.671875 122.847656 L 384.671875 121.300781 L 385.46875 121.300781 C 385.789063 121.636719 386.417969 121.980469 387.328125 121.980469 C 388.402344 121.980469 389.226563 121.394531 389.226563 120.304688 C 389.226563 119.1875 388.601563 118.710938 387.804688 118.710938 C 386.964844 118.710938 386.53125 119.074219 386.265625 119.371094 L 384.964844 119.371094 L 384.964844 113.65625 L 390.863281 113.65625 L 390.863281 115.359375 L 386.53125 115.359375 L 386.53125 117.648438 L 386.574219 117.648438 C 386.910156 117.414063 387.496094 117.160156 388.347656 117.160156 C 390.050781 117.160156 391.394531 118.113281 391.394531 120.234375 C 391.394531 122.304688 389.730469 123.546875 387.355469 123.546875 M 378.96875 123.546875 C 378.03125 123.546875 377.359375 123.394531 376.773438 123.15625 L 376.773438 121.550781 L 377.570313 121.550781 C 377.78125 121.761719 378.28125 122.011719 379.066406 122.011719 C 380.910156 122.011719 381.496094 120.976563 381.652344 119.230469 C 381.066406 119.660156 380.226563 119.859375 379.441406 119.859375 C 377.554688 119.859375 376.257813 118.808594 376.257813 116.894531 C 376.257813 114.96875 377.738281 113.542969 379.972656 113.542969 C 382.210938 113.542969 383.875 115.105469 383.875 118.335938 C 383.875 121.675781 382.125 123.546875 378.96875 123.546875 M 374.71875 123.4375 L 372.539063 123.4375 L 372.539063 115.945313 L 371.378906 116.558594 L 370.820313 116.558594 L 370.820313 115.105469 L 373.265625 113.65625 L 374.71875 113.65625 Z M 396.835938 105.089844 C 392.898438 103.28125 389.726563 103.597656 388.140625 104.292969 C 386.574219 104.988281 385.304688 107.730469 384.664063 110.804688 C 384.65625 110.8125 384.65625 110.8125 384.648438 111.359375 C 384.648438 110.8125 384.636719 110.8125 384.632813 110.804688 C 384.007813 107.730469 382.738281 104.988281 381.152344 104.292969 C 379.574219 103.597656 376.390625 103.28125 372.46875 105.089844 C 366.710938 107.757813 363.210938 107.359375 361.269531 107.191406 L 366.375 130.878906 C 366.375 130.878906 368.863281 130.734375 373.660156 129.144531 C 378.109375 127.671875 382.230469 128.828125 384.648438 131.601563 C 387.050781 128.828125 391.191406 127.671875 395.648438 129.144531 C 400.429688 130.734375 402.925781 130.878906 402.925781 130.878906 L 408.035156 107.191406 C 406.105469 107.359375 402.585938 107.757813 396.835938 105.089844 "
       id="path11" />
    <path
       style=" stroke:none;fill-rule:nonzero;fill:rgb(100%,100%,100%);fill-opacity:1;"
       d="M 317.054688 68.96875 L 309.964844 68.96875 L 309.964844 71.621094 L 311.277344 71.621094 C 311.917969 71.621094 312.546875 72.261719 312.546875 72.738281 L 312.546875 96.792969 L 317.949219 96.792969 L 317.949219 70.050781 C 317.960938 69.328125 317.691406 68.96875 317.054688 68.96875 "
       id="path12" />
    <path
       style=" stroke:none;fill-rule:nonzero;fill:rgb(100%,100%,100%);fill-opacity:1;"
       d="M 219.003906 75.714844 L 213.703125 75.714844 L 213.703125 73.4375 C 213.703125 72.871094 213.789063 72.410156 213.976563 72.050781 C 214.144531 71.695313 214.386719 71.421875 214.710938 71.242188 C 215.042969 71.050781 215.40625 70.933594 215.820313 70.875 C 216.234375 70.816406 216.691406 70.792969 217.171875 70.792969 L 218.714844 70.792969 L 218.714844 68.433594 L 216.445313 68.433594 C 214.816406 68.433594 213.492188 68.835938 212.503906 69.636719 C 211.503906 70.433594 211.003906 71.699219 211.003906 73.4375 L 211.003906 75.714844 L 207.769531 75.714844 L 207.769531 78.0625 L 219.003906 78.0625 "
       id="path13" />
    <path
       style=" stroke:none;fill-rule:nonzero;fill:rgb(100%,100%,100%);fill-opacity:1;"
       d="M 283.386719 86.914063 C 283.203125 91.8125 281.46875 94.21875 276.109375 94.21875 C 272.925781 94.21875 270.988281 92.929688 269.75 91.667969 C 270.265625 90.746094 270.605469 89.785156 270.796875 88.859375 C 271.277344 86.5625 271.40625 84.308594 271.40625 84.308594 C 271.40625 80.96875 273.53125 78.164063 276.964844 78.164063 C 280.539063 78.164063 282.84375 80.171875 283.296875 84.308594 C 283.296875 84.308594 283.464844 85.835938 283.386719 86.914063 M 256.679688 93.25 C 255.773438 93.25 255.007813 93.101563 254.402344 92.808594 C 253.792969 92.507813 253.308594 92.101563 252.933594 91.585938 C 252.5625 91.074219 252.320313 90.480469 252.15625 89.804688 C 252.015625 89.136719 251.945313 88.449219 251.945313 87.730469 L 251.945313 77.679688 L 251.933594 77.679688 L 251.933594 69.925781 C 251.949219 69.207031 251.671875 68.84375 251.046875 68.84375 L 243.941406 68.84375 L 243.941406 71.488281 L 245.265625 71.488281 C 245.898438 71.488281 246.539063 72.136719 246.539063 72.617188 L 246.539063 84.074219 L 246.542969 84.074219 L 246.542969 90.300781 C 246.542969 91.4375 246.394531 92.222656 246.082031 92.628906 C 245.773438 93.046875 245.125 93.25 244.132813 93.25 L 237.136719 93.25 C 236.242188 93.25 235.480469 93.117188 234.867188 92.847656 C 234.265625 92.574219 233.773438 92.183594 233.398438 91.691406 C 233.039063 91.191406 232.769531 90.609375 232.601563 89.9375 C 232.445313 89.269531 232.363281 88.535156 232.363281 87.730469 L 232.363281 69.859375 C 232.367188 69.136719 232.101563 68.777344 231.472656 68.777344 L 224.421875 68.777344 L 224.421875 71.421875 L 225.742188 71.421875 C 226.378906 71.421875 227.003906 72.058594 227.003906 72.542969 L 227.003906 84.011719 L 227.015625 84.011719 L 227.015625 90.300781 C 227.015625 91.4375 226.859375 92.222656 226.558594 92.628906 C 226.238281 93.046875 225.597656 93.25 224.59375 93.25 L 205.601563 93.25 C 203.542969 93.25 202.964844 93.210938 202.964844 93.210938 C 197.859375 93.007813 195.257813 90.980469 195.257813 87.402344 C 195.257813 84.871094 196.476563 83.6875 197.613281 82.964844 L 197.613281 81.058594 L 194.554688 81.058594 C 193.585938 82.273438 192.523438 84.351563 192.523438 87.476563 C 192.523438 93.546875 196.476563 96.609375 202.964844 96.628906 C 203.09375 96.628906 204.785156 96.679688 204.785156 96.679688 L 224.886719 96.679688 C 224.886719 96.679688 227.207031 96.578125 228.078125 96.382813 C 229.425781 96.0625 230.414063 95.5 231.066406 94.664063 C 231.699219 93.839844 232.101563 92.828125 232.265625 91.632813 C 232.589844 93.085938 233.257813 94.289063 234.292969 95.246094 C 235.3125 96.195313 236.679688 96.679688 238.386719 96.679688 L 244.949219 96.679688 C 246.171875 96.679688 247.199219 96.550781 248.015625 96.308594 C 248.832031 96.070313 249.5 95.722656 250.03125 95.292969 C 250.574219 94.84375 250.984375 94.308594 251.265625 93.679688 C 251.554688 93.054688 251.753906 92.367188 251.847656 91.632813 C 252.167969 93.085938 252.84375 94.289063 253.875 95.246094 C 254.796875 96.109375 256.003906 96.574219 257.480469 96.660156 L 257.480469 96.679688 L 260.136719 96.679688 C 263.496094 96.679688 265.945313 95.667969 267.652344 94.21875 C 269.480469 95.324219 272.09375 96.984375 276.476563 96.984375 C 281.957031 96.984375 285.585938 95.046875 287.324219 91.691406 C 287.632813 93.101563 288.28125 94.28125 289.269531 95.21875 C 290.195313 96.097656 291.398438 96.574219 292.898438 96.664063 C 292.988281 96.679688 293.085938 96.683594 293.195313 96.683594 L 305.214844 96.683594 L 305.214844 70.007813 C 305.222656 69.289063 304.953125 68.933594 304.328125 68.933594 L 297.226563 68.933594 L 297.226563 71.574219 L 298.542969 71.574219 C 299.175781 71.574219 299.8125 72.214844 299.8125 72.695313 L 299.8125 93.195313 L 292.195313 93.195313 C 290.390625 93.195313 289.144531 92.679688 288.441406 91.632813 C 288.207031 91.28125 288.011719 90.875 287.855469 90.441406 C 288.28125 89.210938 288.503906 87.824219 288.503906 86.3125 C 288.503906 79.652344 283.839844 75.480469 276.964844 75.480469 C 270.324219 75.480469 266.585938 79.476563 266.585938 85.492188 L 266.550781 86.914063 C 266.550781 93.339844 261.375 93.246094 258.351563 93.246094 "
       id="path14" />
    <path
       style="display:inline;fill:#ffffff;fill-opacity:1;fill-rule:nonzero;stroke:none"
       d="m 70.078125,75.773438 c -3.914062,0 -6.363281,0.523437 -7.910156,1.132812 v 4.4375 h 3.136719 c 0.410156,-2.09375 2.089843,-2.738281 4.871093,-2.738281 4.363282,0 7.046875,2.65625 7.046875,8.066406 v 6.652344 H 59.636719 v 3.46875 H 82.359375 V 86.628906 c 0,-6.773437 -4.859375,-10.855468 -12.28125,-10.855468"
       id="path15" />
    <path
       style=" stroke:none;fill-rule:nonzero;fill:rgb(100%,100%,100%);fill-opacity:1;"
       d="M 118.402344 84.492188 C 118.585938 83.429688 119.460938 82.492188 120.953125 81.554688 C 122.761719 80.554688 125.011719 80.058594 127.695313 80.058594 C 130.371094 80.058594 132.679688 80.554688 134.488281 81.554688 C 135.921875 82.386719 136.726563 83.382813 136.917969 84.492188 L 127.695313 92.296875 C 123.507813 88.863281 120.460938 86.257813 118.402344 84.492188 M 92.609375 90.777344 C 92.417969 89.902344 92.328125 89.019531 92.328125 88.136719 C 92.328125 86.78125 92.546875 85.664063 93 84.777344 C 93.460938 83.882813 94.003906 83.167969 94.65625 82.621094 C 95.296875 82.070313 96.007813 81.691406 96.761719 81.460938 C 97.519531 81.226563 98.214844 81.117188 98.832031 81.117188 L 102.125 81.117188 L 102.125 93.347656 L 93.585938 93.347656 C 93.140625 92.515625 92.808594 91.652344 92.609375 90.777344 M 148.941406 96.792969 C 150.144531 96.792969 151.15625 96.671875 151.992188 96.417969 C 152.839844 96.179688 153.527344 95.839844 154.054688 95.386719 C 154.589844 94.941406 155 94.414063 155.292969 93.796875 C 155.585938 93.175781 155.78125 92.480469 155.878906 91.707031 C 156.203125 93.175781 156.871094 94.394531 157.894531 95.347656 C 158.90625 96.308594 160.28125 96.792969 161.996094 96.792969 L 162.4375 96.792969 C 164.820313 96.792969 166.519531 96.320313 167.523438 95.386719 C 168.523438 94.457031 169.144531 93.234375 169.371094 91.707031 C 169.683594 93.175781 170.371094 94.394531 171.378906 95.347656 C 172.402344 96.308594 173.765625 96.792969 175.480469 96.792969 L 183.289063 96.792969 L 183.289063 77.667969 L 175.386719 77.667969 L 175.386719 80.414063 L 177.152344 80.414063 C 177.746094 80.414063 178.382813 80.972656 178.382813 81.503906 L 178.382813 86.6875 L 178.398438 86.6875 L 178.398438 93.347656 L 174.175781 93.347656 C 173.296875 93.347656 172.5625 93.207031 171.945313 92.929688 C 171.320313 92.664063 170.835938 92.277344 170.484375 91.773438 C 170.121094 91.273438 169.867188 90.6875 169.703125 90.007813 C 169.5625 89.410156 169.503906 88.757813 169.476563 88.054688 L 169.476563 80.425781 L 161.5625 80.425781 L 161.5625 83.164063 L 163.34375 83.164063 C 163.90625 83.164063 164.515625 83.683594 164.550781 84.195313 L 164.550781 90.460938 C 164.550781 91.550781 164.398438 92.304688 164.078125 92.71875 C 163.746094 93.132813 162.605469 93.347656 161.703125 93.347656 L 160.679688 93.347656 C 159.804688 93.347656 159.066406 93.207031 158.453125 92.929688 C 157.835938 92.664063 157.34375 92.277344 156.992188 91.773438 C 156.644531 91.273438 156.371094 90.6875 156.226563 90.007813 C 156.054688 89.324219 155.980469 88.585938 155.980469 87.789063 L 155.980469 83.09375 L 155.964844 83.09375 L 155.964844 83.085938 L 148.058594 83.085938 L 148.058594 85.835938 L 149.824219 85.835938 C 150.425781 85.835938 151.0625 86.398438 151.0625 86.925781 L 151.0625 90.460938 C 151.0625 91.550781 150.894531 92.304688 150.570313 92.71875 C 150.246094 93.132813 149.617188 93.347656 148.679688 93.347656 L 134.699219 93.339844 C 133.992188 93.339844 133.21875 93.289063 132.511719 93.144531 C 138.097656 88.515625 141.175781 85.988281 141.71875 85.546875 C 141.71875 83.265625 140.402344 81.171875 137.71875 79.375 C 134.871094 77.472656 131.527344 76.554688 127.695313 76.554688 C 123.785156 76.554688 120.445313 77.472656 117.652344 79.324219 C 114.914063 81.171875 113.539063 83.265625 113.539063 85.546875 C 118.367188 89.640625 121.378906 92.167969 122.636719 93.144531 C 121.933594 93.289063 121.269531 93.347656 120.5625 93.347656 L 107.5625 93.347656 L 107.5625 77.667969 L 99.171875 77.667969 C 97.554688 77.667969 95.992188 77.933594 94.507813 78.464844 C 93.019531 78.996094 91.714844 79.761719 90.601563 80.75 C 89.480469 81.738281 88.597656 82.925781 87.925781 84.320313 C 87.277344 85.710938 86.929688 87.273438 86.929688 88.992188 C 86.929688 90.285156 87.132813 91.605469 87.515625 92.960938 C 87.914063 94.308594 88.414063 95.589844 89.023438 96.792969 L 101.371094 96.792969 C 99.832031 98.769531 98.46875 99.953125 96.097656 100.601563 L 96.097656 103.023438 L 100.238281 103.023438 C 102.109375 102.046875 104.28125 99.910156 106.191406 96.792969 L 121.378906 96.792969 C 121.378906 96.792969 124.742188 96.792969 127.574219 94.917969 C 129.917969 96.410156 132.453125 96.792969 134.089844 96.792969 "
       id="path16" />
    <path
       style=" stroke:none;fill-rule:nonzero;fill:rgb(100%,100%,100%);fill-opacity:1;"
       d="M 77.382813 27.84375 C 78.1875 27.84375 78.859375 27.605469 79.390625 27.117188 C 79.914063 26.632813 80.179688 26.03125 80.179688 25.316406 C 80.179688 24.667969 79.914063 24.097656 79.390625 23.613281 C 78.859375 23.128906 78.1875 22.878906 77.382813 22.878906 C 76.617188 22.878906 75.953125 23.128906 75.417969 23.613281 C 74.867188 24.097656 74.59375 24.667969 74.59375 25.316406 C 74.59375 26.03125 74.867188 26.632813 75.417969 27.117188 C 75.953125 27.605469 76.617188 27.84375 77.382813 27.84375 "
       id="path17" />
    <path
       style=" stroke:none;fill-rule:nonzero;fill:rgb(100%,100%,100%);fill-opacity:1;"
       d="M 69.535156 27.84375 C 70.308594 27.84375 70.972656 27.605469 71.53125 27.117188 C 72.097656 26.632813 72.382813 26.03125 72.382813 25.316406 C 72.382813 24.667969 72.097656 24.097656 71.53125 23.613281 C 70.972656 23.128906 70.308594 22.878906 69.535156 22.878906 C 68.761719 22.878906 68.109375 23.128906 67.5625 23.613281 C 67.019531 24.097656 66.75 24.667969 66.75 25.316406 C 66.75 26.03125 67.019531 26.632813 67.5625 27.117188 C 68.109375 27.605469 68.761719 27.84375 69.535156 27.84375 "
       id="path18" />
    <path
       style=" stroke:none;fill-rule:nonzero;fill:rgb(100%,100%,100%);fill-opacity:1;"
       d="M 304.742188 56.828125 C 303.941406 56.828125 303.273438 57.058594 302.742188 57.53125 C 302.214844 58 301.949219 58.597656 301.949219 59.304688 C 301.949219 59.988281 302.214844 60.566406 302.742188 61.03125 C 303.273438 61.507813 303.941406 61.738281 304.742188 61.738281 C 305.511719 61.738281 306.171875 61.507813 306.722656 61.03125 C 307.257813 60.566406 307.535156 59.988281 307.535156 59.304688 C 307.535156 58.597656 307.257813 58 306.722656 57.53125 C 306.171875 57.058594 305.511719 56.828125 304.742188 56.828125 "
       id="path19" />
    <path
       style=" stroke:none;fill-rule:nonzero;fill:rgb(100%,100%,100%);fill-opacity:1;"
       d="M 212.902344 43.910156 C 212.722656 48.804688 210.980469 51.210938 205.628906 51.210938 C 202.457031 51.210938 200.511719 49.917969 199.285156 48.660156 C 199.800781 47.742188 200.144531 46.785156 200.339844 45.859375 C 200.808594 43.5625 200.933594 41.308594 200.933594 41.308594 C 200.933594 37.980469 203.058594 35.175781 206.496094 35.175781 C 210.054688 35.175781 212.359375 37.179688 212.808594 41.308594 C 212.808594 41.308594 212.972656 42.84375 212.902344 43.910156 M 129.90625 41.453125 C 130.089844 40.414063 130.957031 39.476563 132.4375 38.546875 C 134.238281 37.558594 136.464844 37.058594 139.132813 37.058594 C 141.796875 37.058594 144.085938 37.558594 145.878906 38.546875 C 147.304688 39.367188 148.105469 40.355469 148.292969 41.453125 L 139.132813 49.199219 C 134.988281 45.796875 131.953125 43.214844 129.90625 41.453125 M 71.675781 51.046875 C 68.652344 51.046875 65.484375 49.804688 65.484375 43.515625 C 65.484375 37.464844 68.878906 35.785156 72.359375 35.785156 C 74.515625 35.785156 76.328125 36.585938 77.726563 37.464844 L 77.726563 48.679688 C 76.234375 50.003906 74.304688 51.046875 71.675781 51.046875 M 77.726563 53.136719 C 77.746094 53.21875 77.761719 53.285156 77.804688 53.34375 C 77.917969 53.546875 78.214844 53.664063 78.65625 53.664063 L 132.863281 53.664063 C 132.863281 53.664063 136.199219 53.664063 139.019531 51.804688 C 141.351563 53.285156 143.855469 53.664063 145.480469 53.664063 L 189.679688 53.664063 C 193.039063 53.664063 195.476563 52.660156 197.183594 51.210938 C 199.027344 52.3125 201.621094 53.96875 205.992188 53.96875 C 213.945313 53.96875 218.003906 49.886719 218.003906 43.308594 C 218.003906 36.664063 213.355469 32.496094 206.496094 32.496094 C 199.863281 32.496094 196.121094 36.484375 196.121094 42.496094 L 196.085938 43.917969 C 196.085938 49.675781 191.925781 50.1875 188.882813 50.242188 L 188.882813 50.226563 L 146.09375 50.226563 C 145.378906 50.226563 144.613281 50.183594 143.90625 50.039063 C 149.460938 45.460938 152.515625 42.941406 153.054688 42.507813 C 153.054688 40.238281 151.75 38.164063 149.078125 36.378906 C 146.257813 34.492188 142.9375 33.574219 139.128906 33.574219 C 135.257813 33.574219 131.941406 34.492188 129.164063 36.324219 C 126.445313 38.164063 125.078125 40.238281 125.078125 42.507813 C 129.878906 46.5625 132.863281 49.074219 134.121094 50.039063 C 133.414063 50.183594 132.761719 50.226563 132.054688 50.226563 L 82.648438 50.242188 L 82.648438 32.976563 L 79.804688 32.976563 C 79.171875 32.976563 78.222656 33.730469 77.910156 35.339844 C 76.328125 33.808594 74.070313 32.734375 70.632813 32.734375 C 65.894531 32.734375 60.433594 35.660156 60.433594 43.589844 C 60.433594 51.53125 65.484375 53.738281 70.230469 53.738281 C 73.617188 53.738281 76.191406 52.445313 77.726563 51.007813 "
       id="path20" />
    <path
       style=" stroke:none;fill-rule:nonzero;fill:rgb(100%,100%,100%);fill-opacity:1;"
       d="M 318.621094 50.273438 L 316.605469 50.273438 C 316.3125 50.273438 315.765625 49.941406 315.605469 49.460938 L 313.839844 41.753906 C 312.265625 36.652344 307.957031 33.972656 305.492188 33.425781 C 304.148438 33.035156 301.707031 32.855469 301.363281 32.832031 C 301.152344 32.824219 300.945313 32.824219 300.738281 32.824219 C 296.285156 32.824219 291.964844 33.785156 290.164063 34.675781 L 289.734375 34.886719 L 289.734375 38.007813 L 292.183594 38.007813 L 292.421875 37.8125 C 293.445313 36.992188 297.019531 35.847656 300.472656 35.847656 L 301 35.859375 C 305.125 35.859375 308.464844 38.328125 309.5 42.132813 L 311.121094 50.246094 L 232.945313 50.253906 L 232.945313 26.925781 C 232.953125 26.203125 232.699219 25.84375 232.058594 25.84375 L 224.972656 25.84375 L 224.972656 28.484375 L 226.289063 28.484375 C 226.914063 28.484375 227.550781 29.125 227.550781 29.601563 L 227.550781 53.664063 L 318.621094 53.664063 "
       id="path21" />
    <path
       style=" stroke:none;fill-rule:nonzero;fill:rgb(100%,100%,100%);fill-opacity:1;"
       d="M 59.636719 136.757813 L 60.765625 136.757813 C 61.171875 136.757813 61.59375 136.269531 61.59375 135.898438 L 61.59375 122.398438 C 61.59375 121.996094 61.171875 121.515625 60.765625 121.515625 L 59.636719 121.515625 L 59.636719 119.75 L 66.863281 119.75 L 66.863281 121.515625 L 64.691406 121.515625 L 64.691406 129.777344 L 71.144531 122.964844 C 71.972656 122.105469 71.761719 121.515625 70.824219 121.515625 L 70.347656 121.515625 L 70.347656 119.75 L 76.859375 119.75 L 76.859375 121.515625 L 76.101563 121.515625 C 75.632813 121.515625 75.152344 121.863281 74.621094 122.398438 L 69.535156 127.476563 L 75.210938 135.898438 C 75.507813 136.351563 75.929688 136.757813 76.40625 136.757813 L 77.132813 136.757813 L 77.132813 138.464844 L 72.265625 138.464844 L 72.265625 136.855469 L 67.402344 129.621094 L 64.691406 132.34375 L 64.691406 136.757813 L 66.863281 136.757813 L 66.863281 138.464844 L 59.636719 138.464844 "
       id="path22" />
    <path
       style=" stroke:none;fill-rule:nonzero;fill:rgb(100%,100%,100%);fill-opacity:1;"
       d="M 80.59375 121.351563 C 80.59375 120.445313 81.3125 119.722656 82.253906 119.722656 C 83.160156 119.722656 83.902344 120.445313 83.902344 121.351563 C 83.902344 122.261719 83.160156 122.988281 82.253906 122.988281 C 81.3125 122.988281 80.59375 122.261719 80.59375 121.351563 M 79.117188 136.757813 L 80.164063 136.757813 C 80.511719 136.757813 80.882813 136.378906 80.882813 136.027344 L 80.882813 127.027344 C 80.882813 126.699219 80.539063 126.277344 80.1875 126.277344 L 79.007813 126.277344 L 79.007813 124.457031 L 83.238281 124.457031 C 83.617188 124.457031 83.769531 124.777344 83.769531 125.683594 L 83.769531 136.027344 C 83.769531 136.410156 84.148438 136.757813 84.5 136.757813 L 85.546875 136.757813 L 85.546875 138.464844 L 79.117188 138.464844 "
       id="path23" />
    <path
       style=" stroke:none;fill-rule:nonzero;fill:rgb(100%,100%,100%);fill-opacity:1;"
       d="M 87.390625 136.757813 L 88.433594 136.757813 C 88.785156 136.757813 89.148438 136.378906 89.148438 136.027344 L 89.148438 127.027344 C 89.148438 126.699219 88.785156 126.277344 88.433594 126.277344 L 87.285156 126.277344 L 87.285156 124.457031 L 91.371094 124.457031 C 91.773438 124.457031 92.070313 124.832031 92.046875 126.167969 L 92.046875 126.542969 C 93.4375 125.261719 95.386719 124.292969 97.554688 124.292969 C 99.546875 124.292969 101.214844 125.015625 101.214844 127.769531 L 101.214844 136.027344 C 101.214844 136.410156 101.582031 136.757813 101.914063 136.757813 L 102.796875 136.757813 L 102.796875 138.464844 L 96.398438 138.464844 L 96.398438 136.757813 L 98.320313 136.757813 L 98.320313 128.726563 C 98.320313 126.992188 97.554688 126.566406 96.136719 126.566406 C 94.640625 126.566406 93.25 127.175781 92.046875 127.902344 L 92.046875 136.757813 L 93.996094 136.757813 L 93.996094 138.464844 L 87.390625 138.464844 "
       id="path24" />
    <path
       style="display:inline;fill:#ffffff;fill-opacity:1;fill-rule:nonzero;stroke:none"
       d="m 113.08594,128.78906 c 0,-1.66015 -0.96485,-2.69531 -2.69922,-2.69531 -1.69922,0 -2.67188,1.03516 -2.67188,2.69531 0,1.63281 0.97266,2.64453 2.67188,2.64453 1.73437,0 2.69922,-1.01172 2.69922,-2.64453 m 1.09765,10.13281 c 0,-1.10156 -0.61328,-1.58203 -2.16015,-1.58203 h -4.55469 c -0.58984,0.48047 -0.93359,1.01172 -0.93359,1.82422 0,1.25391 0.7539,2.0586 3.41797,2.0586 2.94921,0 4.23046,-0.99219 4.23046,-2.30079 m -10.26562,0.82422 c 0,-1.63281 1.14453,-2.51172 2.42578,-3.14453 -0.60937,-0.33203 -1.09375,-0.96875 -1.09375,-1.90234 0,-1.125 0.59375,-1.92969 1.42188,-2.60156 -1.01954,-0.74219 -1.63282,-1.89844 -1.63282,-3.3086 0,-2.64843 2.03907,-4.49609 5.34766,-4.49609 0.61328,0 1.20312,0.0547 1.73437,0.16406 h 4.81641 v 1.82031 h -1.20312 c -0.26563,0 -0.59375,0.20704 -0.59375,0.48047 0.41015,0.55078 0.61718,1.2461 0.61718,2.03125 0,2.58594 -2.05078,4.32813 -5.37109,4.32813 -1.04297,0 -1.87891,-0.16016 -2.59375,-0.45313 -0.24219,0.34766 -0.375,0.74219 -0.375,1.17969 0,0.69141 0.45703,0.99219 1.30859,0.99219 h 3.94532 c 2.76562,0 4.25,1.08984 4.25,3.46093 0,2.75782 -1.9336,4.76954 -7.09375,4.76954 -4.29297,0 -5.91016,-1.39454 -5.91016,-3.32032"
       id="path25" />
    <path
       style=" stroke:none;fill-rule:nonzero;fill:rgb(100%,100%,100%);fill-opacity:1;"
       d="M 127.234375 137.769531 C 127.042969 137.769531 126.894531 138.066406 126.839844 138.464844 L 124.800781 138.464844 L 124.800781 133.011719 L 126.914063 133.011719 L 127.175781 135.277344 C 128.121094 136.195313 129.074219 136.703125 131.085938 136.703125 C 133.230469 136.703125 134.644531 135.710938 134.644531 133.652344 C 134.644531 131.117188 132.765625 130.816406 130.042969 130.070313 C 126.746094 129.164063 125.125 127.796875 125.125 124.617188 C 125.125 121.246094 127.609375 119.5625 131.050781 119.5625 C 132.949219 119.5625 133.890625 120.070313 134.433594 120.335938 C 134.613281 120.335938 134.796875 120.015625 134.820313 119.75 L 136.777344 119.75 L 136.777344 124.695313 L 134.710938 124.695313 L 134.457031 122.824219 C 133.777344 122.179688 132.871094 121.539063 131.050781 121.539063 C 129.109375 121.539063 127.765625 122.292969 127.765625 124.316406 C 127.765625 126.511719 129.480469 126.886719 132.046875 127.578125 C 135.625 128.542969 137.441406 129.695313 137.441406 133.148438 C 137.441406 136.730469 135.257813 138.660156 131.128906 138.660156 C 129.027344 138.660156 127.949219 138.179688 127.234375 137.769531 "
       id="path26" />
    <path
       style=" stroke:none;fill-rule:nonzero;fill:rgb(100%,100%,100%);fill-opacity:1;"
       d="M 148.378906 135.226563 L 148.378906 132.1875 C 147.574219 132.019531 146.691406 131.914063 145.761719 131.914063 C 143.722656 131.914063 142.5 132.636719 142.5 134.375 C 142.5 136.089844 143.453125 136.777344 145.085938 136.777344 C 146.558594 136.777344 147.515625 136.136719 148.378906 135.226563 M 139.632813 134.457031 C 139.632813 131.5625 141.933594 130.199219 145.167969 130.199219 C 146.417969 130.199219 147.390625 130.339844 148.378906 130.574219 L 148.378906 128.726563 C 148.378906 126.941406 147.339844 126.296875 145.550781 126.296875 C 143.699219 126.296875 142.660156 126.941406 141.910156 127.609375 L 140.570313 127.609375 L 140.570313 125.390625 C 141.769531 124.804688 143.480469 124.292969 146.050781 124.292969 C 149.339844 124.292969 151.265625 125.335938 151.265625 128.4375 L 151.265625 135.898438 C 151.265625 136.429688 151.609375 136.757813 152.125 136.757813 L 152.839844 136.757813 L 152.839844 138.199219 C 152.464844 138.433594 151.800781 138.628906 150.992188 138.628906 C 149.46875 138.628906 148.667969 138.007813 148.460938 136.730469 C 147.421875 138.007813 146.050781 138.628906 144.175781 138.628906 C 141.507813 138.628906 139.632813 137.234375 139.632813 134.457031 "
       id="path27" />
    <path
       style=" stroke:none;fill-rule:nonzero;fill:rgb(100%,100%,100%);fill-opacity:1;"
       d="M 155.605469 135.175781 L 155.605469 126.992188 C 155.605469 126.644531 155.230469 126.277344 154.871094 126.277344 L 153.851563 126.277344 L 153.851563 124.457031 L 158.496094 124.457031 L 158.496094 134.269531 C 158.496094 136.089844 159.433594 136.539063 160.742188 136.539063 C 162.191406 136.539063 163.609375 135.898438 164.722656 135.15625 L 164.722656 126.277344 L 162.71875 126.277344 L 162.71875 124.457031 L 167.609375 124.457031 L 167.609375 136.007813 C 167.609375 136.351563 167.988281 136.757813 168.371094 136.757813 L 169.4375 136.757813 L 169.4375 138.464844 L 165.398438 138.464844 C 165.023438 138.464844 164.753906 138.144531 164.753906 136.832031 L 164.753906 136.492188 C 163.308594 137.769531 161.621094 138.660156 159.351563 138.660156 C 157.402344 138.660156 155.605469 137.871094 155.605469 135.175781 "
       id="path28" />
    <path
       style=" stroke:none;fill-rule:nonzero;fill:rgb(100%,100%,100%);fill-opacity:1;"
       d="M 181.390625 134.964844 L 181.390625 127.5 C 180.515625 126.808594 179.476563 126.324219 178.03125 126.324219 C 175.972656 126.324219 173.964844 127.449219 173.964844 131.539063 C 173.964844 135.816406 175.839844 136.832031 177.628906 136.832031 C 179.3125 136.832031 180.464844 135.976563 181.390625 134.964844 M 170.972656 131.621094 C 170.972656 126.277344 174.289063 124.292969 177.09375 124.292969 C 179.183594 124.292969 180.484375 125.042969 181.390625 125.949219 L 181.390625 121.515625 L 179.363281 121.515625 L 179.363281 119.75 L 183.753906 119.75 C 184.125 119.75 184.289063 120.015625 184.289063 120.46875 L 184.289063 136.007813 C 184.289063 136.351563 184.664063 136.757813 185.007813 136.757813 L 186.046875 136.757813 L 186.046875 138.464844 L 182.011719 138.464844 C 181.6875 138.464844 181.484375 138.066406 181.445313 136.539063 C 180.464844 137.6875 178.9375 138.628906 176.800781 138.628906 C 173.964844 138.628906 170.972656 136.988281 170.972656 131.621094 "
       id="path29" />
    <path
       style=" stroke:none;fill-rule:nonzero;fill:rgb(100%,100%,100%);fill-opacity:1;"
       d="M 193.566406 131.789063 L 193.566406 122.511719 C 193.566406 122.117188 193.164063 121.628906 192.710938 121.628906 L 191.644531 121.628906 L 191.644531 119.863281 L 198.996094 119.863281 L 198.996094 121.628906 L 196.644531 121.628906 L 196.644531 131.957031 C 196.644531 135.691406 198.492188 136.628906 201.1875 136.628906 C 203.863281 136.628906 205.699219 135.71875 205.699219 131.957031 L 205.699219 121.628906 L 203.355469 121.628906 L 203.355469 119.863281 L 209.90625 119.863281 L 209.90625 121.628906 L 208.839844 121.628906 C 208.4375 121.628906 208.003906 122.117188 208.003906 122.511719 L 208.003906 131.789063 C 208.003906 136.554688 205.574219 138.769531 200.871094 138.769531 C 196.292969 138.769531 193.566406 136.554688 193.566406 131.789063 "
       id="path30" />
    <path
       style=" stroke:none;fill-rule:nonzero;fill:rgb(100%,100%,100%);fill-opacity:1;"
       d="M 210.839844 136.863281 L 211.890625 136.863281 C 212.230469 136.863281 212.613281 136.492188 212.613281 136.148438 L 212.613281 127.136719 C 212.613281 126.824219 212.230469 126.386719 211.890625 126.386719 L 210.738281 126.386719 L 210.738281 124.570313 L 214.835938 124.570313 C 215.230469 124.570313 215.523438 124.949219 215.496094 126.285156 L 215.496094 126.660156 C 216.882813 125.375 218.839844 124.40625 221.003906 124.40625 C 223.015625 124.40625 224.667969 125.136719 224.667969 127.886719 L 224.667969 136.148438 C 224.667969 136.527344 225.046875 136.863281 225.359375 136.863281 L 226.246094 136.863281 L 226.246094 138.585938 L 219.847656 138.585938 L 219.847656 136.863281 L 221.785156 136.863281 L 221.785156 128.855469 C 221.785156 127.109375 221.003906 126.6875 219.589844 126.6875 C 218.085938 126.6875 216.691406 127.296875 215.496094 128.019531 L 215.496094 136.863281 L 217.453125 136.863281 L 217.453125 138.585938 L 210.839844 138.585938 "
       id="path31" />
    <path
       style=" stroke:none;fill-rule:nonzero;fill:rgb(100%,100%,100%);fill-opacity:1;"
       d="M 229.132813 121.472656 C 229.132813 120.566406 229.859375 119.839844 230.789063 119.839844 C 231.699219 119.839844 232.445313 120.566406 232.445313 121.472656 C 232.445313 122.378906 231.699219 123.097656 230.789063 123.097656 C 229.859375 123.097656 229.132813 122.378906 229.132813 121.472656 M 227.664063 136.863281 L 228.707031 136.863281 C 229.054688 136.863281 229.425781 136.492188 229.425781 136.148438 L 229.425781 127.136719 C 229.425781 126.824219 229.074219 126.386719 228.734375 126.386719 L 227.554688 126.386719 L 227.554688 124.570313 L 231.78125 124.570313 C 232.160156 124.570313 232.304688 124.890625 232.304688 125.804688 L 232.304688 136.148438 C 232.304688 136.527344 232.699219 136.863281 233.042969 136.863281 L 234.078125 136.863281 L 234.078125 138.585938 L 227.664063 138.585938 "
       id="path32" />
    <path
       style=" stroke:none;fill-rule:nonzero;fill:rgb(100%,100%,100%);fill-opacity:1;"
       d="M 235.847656 127.246094 C 235.632813 126.742188 235.28125 126.386719 234.851563 126.386719 L 234.320313 126.386719 L 234.320313 124.570313 L 240.492188 124.570313 L 240.492188 126.386719 L 238.519531 126.386719 L 241.984375 135.777344 L 242.050781 135.777344 L 245.015625 127.945313 C 245.335938 127.0625 245.277344 126.386719 244.292969 126.386719 L 243.601563 126.386719 L 243.601563 124.570313 L 249.214844 124.570313 L 249.214844 126.386719 L 248.726563 126.386719 C 248.25 126.386719 247.875 126.707031 247.636719 127.273438 L 243.035156 138.585938 L 240.382813 138.585938 "
       id="path33" />
    <path
       style=" stroke:none;fill-rule:nonzero;fill:rgb(100%,100%,100%);fill-opacity:1;"
       d="M 259.421875 130.296875 C 259.324219 127.324219 258.175781 126.207031 256.136719 126.207031 C 254.027344 126.207031 252.660156 127.542969 252.390625 130.296875 Z M 249.320313 131.628906 C 249.320313 127.195313 252.074219 124.40625 256.136719 124.40625 C 260.066406 124.40625 262.347656 126.46875 262.347656 131.152344 C 262.347656 131.550781 262.324219 131.921875 262.324219 132.035156 L 252.34375 132.035156 C 252.449219 135.296875 253.851563 136.894531 256.660156 136.894531 C 258.628906 136.894531 259.535156 136.199219 260.261719 135.320313 L 261.90625 135.320313 L 261.90625 137.296875 C 260.8125 138.019531 259.242188 138.75 256.425781 138.75 C 251.730469 138.75 249.320313 136.015625 249.320313 131.628906 "
       id="path34" />
    <path
       style=" stroke:none;fill-rule:nonzero;fill:rgb(100%,100%,100%);fill-opacity:1;"
       d="M 264.453125 136.863281 L 265.492188 136.863281 C 265.84375 136.863281 266.222656 136.492188 266.222656 136.148438 L 266.222656 127.136719 C 266.222656 126.824219 265.84375 126.386719 265.492188 126.386719 L 264.347656 126.386719 L 264.347656 124.570313 L 268.4375 124.570313 C 268.839844 124.570313 269.113281 124.917969 269.113281 126.441406 L 269.113281 126.898438 C 270.09375 125.640625 271.328125 124.46875 273.285156 124.46875 C 273.597656 124.46875 273.859375 124.515625 274.078125 124.570313 L 274.078125 126.953125 L 273.515625 126.953125 C 271.378906 126.953125 270.148438 127.457031 269.113281 128.367188 L 269.113281 136.863281 L 271.328125 136.863281 L 271.328125 138.585938 L 264.453125 138.585938 "
       id="path35" />
    <path
       style=" stroke:none;fill-rule:nonzero;fill:rgb(100%,100%,100%);fill-opacity:1;"
       d="M 275.226563 137.945313 L 275.226563 135.03125 L 276.964844 135.03125 C 277.300781 136.339844 278.199219 136.863281 280.074219 136.863281 C 281.992188 136.863281 283.167969 136.179688 283.167969 134.734375 C 283.167969 133.425781 282.207031 133.046875 279.820313 132.671875 C 276.9375 132.246094 275.449219 131.335938 275.449219 128.558594 C 275.449219 125.941406 277.441406 124.40625 280.792969 124.40625 C 283.007813 124.40625 284.367188 124.734375 285.390625 125.109375 L 285.390625 127.886719 L 283.707031 127.886719 C 283.410156 126.84375 282.640625 126.339844 280.683594 126.339844 C 278.96875 126.339844 277.960938 127.03125 277.960938 128.179688 C 277.960938 129.40625 278.707031 129.839844 281.132813 130.210938 C 284.339844 130.695313 285.84375 131.550781 285.84375 134.332031 C 285.84375 137.003906 283.972656 138.75 280.097656 138.75 C 277.582031 138.75 276.238281 138.34375 275.226563 137.945313 "
       id="path36" />
    <path
       style="display:inline;fill:#ffffff;fill-opacity:1;fill-rule:nonzero;stroke:none"
       d="m 288.92187,121.47266 c 0,-0.90625 0.73047,-1.63282 1.66016,-1.63282 0.90234,0 1.65625,0.72657 1.65625,1.63282 0,0.90625 -0.75391,1.625 -1.65625,1.625 -0.92969,0 -1.66016,-0.71875 -1.66016,-1.625 m -1.46875,15.39062 h 1.03907 c 0.35156,0 0.71875,-0.37109 0.71875,-0.71484 v -9.01172 c 0,-0.3125 -0.34766,-0.75 -0.69532,-0.75 h -1.17968 v -1.81641 h 4.22656 c 0.375,0 0.53906,0.32032 0.53906,1.23438 v 10.34375 c 0,0.3789 0.36719,0.71484 0.72266,0.71484 h 1.05078 v 1.72266 h -6.42188"
       id="path37" />
    <path
       style=" stroke:none;fill-rule:nonzero;fill:rgb(100%,100%,100%);fill-opacity:1;"
       d="M 295.894531 135.261719 L 295.894531 126.386719 L 294.105469 126.386719 L 294.105469 124.570313 L 295.894531 124.570313 L 295.894531 120.804688 L 298.792969 120.804688 L 298.792969 124.570313 L 301.96875 124.570313 L 301.96875 126.386719 L 298.792969 126.386719 L 298.792969 134.945313 C 298.792969 136.527344 299.320313 136.863281 300.738281 136.863281 L 302.144531 136.863281 L 302.144531 138.421875 C 301.644531 138.613281 300.816406 138.769531 299.824219 138.769531 C 297.34375 138.769531 295.894531 137.890625 295.894531 135.261719 "
       id="path38" />
    <path
       style="display:inline;fill:#ffffff;fill-opacity:1;fill-rule:nonzero;stroke:none"
       d="m 305.84375,141.3125 c 1.55859,-0.48047 2.83594,-1.47266 3.875,-3.07422 l -4.72656,-10.99219 c -0.21485,-0.5039 -0.5625,-0.85937 -0.99219,-0.85937 h -0.50781 v -1.81641 h 6.21093 v 1.81641 h -2.07031 l 3.59375,8.61719 2.87891,-7.0586 c 0.3789,-0.91406 0.32812,-1.55859 -0.67188,-1.55859 H 312.75 v -1.81641 h 5.72266 v 1.81641 h -0.6211 c -0.42969,0 -0.80078,0.35547 -1.04687,0.88672 l -4.42578,10.23437 c -1.28516,2.96875 -2.73438,4.60156 -4.09375,5.41016 h -2.44141"
       id="path39" />
  </g>
</svg>
